<svg xmlns="http://www.w3.org/2000/svg" width="860" height="750" fill="none" viewBox="0 0 860 750">
  <g clip-path="url(#a)">
    <g clip-path="url(#b)">
      <path fill="url(#c)" fill-opacity=".5" fill-rule="evenodd" d="M430 272.533c109.349 0 198 88.532 198 197.733 0 109.202-88.651 197.733-198 197.733s-198-88.531-198-197.733c0-109.201 88.651-197.733 198-197.733Zm130.916 197.733c0-72.2-58.618-130.739-130.916-130.739s-130.916 58.539-130.916 130.739S357.702 601.005 430 601.005s130.916-58.539 130.916-130.739Z" clip-rule="evenodd"/>
      <path fill="url(#d)" fill-opacity=".5" fill-rule="evenodd" d="M429.844 534.184c34.904 0 63.189-28.241 63.189-63.09V203.779c0-34.849-28.285-63.089-63.189-63.089-34.904 0-63.189 28.24-63.189 63.089v267.315c0 34.849 28.285 63.09 63.189 63.09Zm130.94-63.09c0 72.198-58.628 130.733-130.94 130.733s-130.94-58.535-130.94-130.733V203.779c0-72.198 58.628-130.733 130.94-130.733s130.94 58.535 130.94 130.733v267.315Z" clip-rule="evenodd"/>
      <mask id="e" width="262" height="528" x="299" y="74" maskUnits="userSpaceOnUse" style="mask-type:luminance">
        <path fill="#fff" d="M430 141.417c-34.779 0-62.963 28.145-62.963 62.877v266.418c0 34.732 28.184 62.878 62.963 62.878 34.779 0 62.962-28.146 62.962-62.878V204.294c0-34.732-28.183-62.877-62.962-62.877Zm-130.47 62.877C299.53 132.339 357.947 74 430 74s130.47 58.339 130.47 130.294v266.418c0 71.955-58.417 130.294-130.47 130.294s-130.47-58.339-130.47-130.294V204.294Z"/>
      </mask>
      <g mask="url(#e)">
        <path fill="url(#f)" fill-opacity=".3" fill-rule="evenodd" d="M430 272.533c109.348 0 198 88.532 198 197.733 0 109.202-88.652 197.733-198 197.733-109.349 0-198-88.531-198-197.733 0-109.201 88.651-197.733 198-197.733Zm130.915 197.733c0-72.2-58.618-130.739-130.915-130.739-72.298 0-130.916 58.539-130.916 130.739S357.702 601.005 430 601.005c72.297 0 130.915-58.539 130.915-130.739Z" clip-rule="evenodd"/>
      </g>
      <path fill="url(#g)" d="M492.925 472.018c0-34.797-28.237-62.996-63.081-62.996-34.844 0-63.081 28.199-63.081 62.996s28.237 62.996 63.081 62.996c34.844 0 63.081-28.199 63.081-62.996Z"/>
    </g>
  </g>
  <defs>
    <linearGradient id="c" x1="409.77" x2="460.365" y1="162.353" y2="934.181" gradientUnits="userSpaceOnUse">
      <stop stop-color="#1A1B1D"/>
      <stop offset="1" stop-color="#929292"/>
    </linearGradient>
    <linearGradient id="d" x1="467.61" x2="411.996" y1="646.477" y2="190.073" gradientUnits="userSpaceOnUse">
      <stop stop-color="#1A1B1D"/>
      <stop offset="1" stop-color="#929292"/>
    </linearGradient>
    <linearGradient id="f" x1="409.77" x2="460.364" y1="162.353" y2="934.181" gradientUnits="userSpaceOnUse">
      <stop stop-color="#929292"/>
      <stop offset="1" stop-color="#181818"/>
    </linearGradient>
    <linearGradient id="g" x1="429.844" x2="429.844" y1="381.827" y2="584.367" gradientUnits="userSpaceOnUse">
      <stop stop-color="#72DA32"/>
      <stop offset="1" stop-color="#001700"/>
    </linearGradient>
    <clipPath id="a">
      <path fill="#fff" d="M0 0h860v750H0z"/>
    </clipPath>
    <clipPath id="b">
      <path fill="#fff" d="M232 74h396v594H232z"/>
    </clipPath>
  </defs>
</svg>
