<svg width="860" height="750" viewBox="0 0 860 750" fill="none" xmlns="http://www.w3.org/2000/svg">
<g clip-path="url(#clip0_2163_3436)">
<g clip-path="url(#clip1_2163_3436)">
<path fill-rule="evenodd" clip-rule="evenodd" d="M430 272.533C539.349 272.533 628 361.065 628 470.266C628 579.468 539.349 667.999 430 667.999C320.651 667.999 232 579.468 232 470.266C232 361.065 320.651 272.533 430 272.533ZM560.916 470.266C560.916 398.066 502.298 339.527 430 339.527C357.702 339.527 299.084 398.066 299.084 470.266C299.084 542.466 357.702 601.005 430 601.005C502.298 601.005 560.916 542.466 560.916 470.266Z" fill="url(#paint0_linear_2163_3436)" fill-opacity="0.5"/>
<path fill-rule="evenodd" clip-rule="evenodd" d="M429.844 534.184C464.748 534.184 493.033 505.943 493.033 471.094V203.779C493.033 168.93 464.748 140.69 429.844 140.69C394.94 140.69 366.655 168.93 366.655 203.779V471.094C366.655 505.943 394.94 534.184 429.844 534.184ZM560.784 471.094C560.784 543.292 502.156 601.827 429.844 601.827C357.532 601.827 298.904 543.292 298.904 471.094V203.779C298.904 131.581 357.532 73.0459 429.844 73.0459C502.156 73.0459 560.784 131.581 560.784 203.779V471.094Z" fill="url(#paint1_linear_2163_3436)" fill-opacity="0.5"/>
<mask id="mask0_2163_3436" style="mask-type:luminance" maskUnits="userSpaceOnUse" x="299" y="74" width="262" height="528">
<path d="M430 141.417C395.221 141.417 367.037 169.562 367.037 204.294V470.712C367.037 505.444 395.221 533.59 430 533.59C464.779 533.59 492.962 505.444 492.962 470.712V204.294C492.962 169.562 464.779 141.417 430 141.417ZM299.53 204.294C299.53 132.339 357.947 74 430 74C502.053 74 560.47 132.339 560.47 204.294V470.712C560.47 542.667 502.053 601.006 430 601.006C357.947 601.006 299.53 542.667 299.53 470.712V204.294Z" fill="white"/>
</mask>
<g mask="url(#mask0_2163_3436)">
<path fill-rule="evenodd" clip-rule="evenodd" d="M430 272.533C539.348 272.533 628 361.065 628 470.266C628 579.468 539.348 667.999 430 667.999C320.651 667.999 232 579.468 232 470.266C232 361.065 320.651 272.533 430 272.533ZM560.915 470.266C560.915 398.066 502.297 339.527 430 339.527C357.702 339.527 299.084 398.066 299.084 470.266C299.084 542.466 357.702 601.005 430 601.005C502.297 601.005 560.915 542.466 560.915 470.266Z" fill="url(#paint2_linear_2163_3436)" fill-opacity="0.3"/>
</g>
<path d="M492.925 472.018C492.925 437.221 464.688 409.022 429.844 409.022C395 409.022 366.763 437.221 366.763 472.018C366.763 506.815 395 535.014 429.844 535.014C464.688 535.014 492.925 506.815 492.925 472.018Z" fill="url(#paint3_linear_2163_3436)"/>
</g>
</g>
<defs>
<linearGradient id="paint0_linear_2163_3436" x1="409.77" y1="162.353" x2="460.365" y2="934.181" gradientUnits="userSpaceOnUse">
<stop stop-color="#1A1B1D"/>
<stop offset="1" stop-color="#929292"/>
</linearGradient>
<linearGradient id="paint1_linear_2163_3436" x1="467.61" y1="646.477" x2="411.996" y2="190.073" gradientUnits="userSpaceOnUse">
<stop stop-color="#1A1B1D"/>
<stop offset="1" stop-color="#929292"/>
</linearGradient>
<linearGradient id="paint2_linear_2163_3436" x1="409.77" y1="162.353" x2="460.364" y2="934.181" gradientUnits="userSpaceOnUse">
<stop stop-color="#929292"/>
<stop offset="1" stop-color="#181818"/>
</linearGradient>
<linearGradient id="paint3_linear_2163_3436" x1="429.844" y1="381.827" x2="429.844" y2="584.367" gradientUnits="userSpaceOnUse">
<stop stop-color="#72DA32"/>
<stop offset="1" stop-color="#001700"/>
</linearGradient>
<clipPath id="clip0_2163_3436">
<rect width="860" height="750" fill="white"/>
</clipPath>
<clipPath id="clip1_2163_3436">
<rect width="396" height="594" fill="white" transform="translate(232 74)"/>
</clipPath>
</defs>
</svg>
