<svg width="860" height="750" viewBox="0 0 860 750" fill="none" xmlns="http://www.w3.org/2000/svg">
<g clip-path="url(#clip0_2163_2859)">
<g clip-path="url(#clip1_2163_2859)">
<path d="M102.242 630.503C106.857 622.503 117.085 619.763 125.085 624.378C133.085 628.994 135.826 639.222 131.21 647.222C126.594 655.222 116.367 657.962 108.366 653.347C100.366 648.731 97.6261 638.504 102.242 630.503Z" fill="url(#paint0_linear_2163_2859)"/>
<path d="M106.667 620.041C113.451 608.304 128.455 604.275 140.207 611.059C151.943 617.843 155.973 632.847 149.189 644.599C142.405 656.336 127.4 660.365 115.649 653.581C103.912 646.797 99.8826 631.792 106.667 620.041Z" fill="url(#paint1_linear_2163_2859)"/>
<path d="M112.484 606.194C121.715 590.193 142.185 584.713 158.185 593.944C174.186 603.175 179.666 623.645 170.435 639.646C161.204 655.647 140.734 661.127 124.733 651.895C108.733 642.664 103.253 622.195 112.484 606.194Z" fill="url(#paint2_linear_2163_2859)"/>
<path d="M122.903 588.158C134.903 567.38 161.454 560.259 182.231 572.26C203.009 584.26 210.13 610.811 198.129 631.588C186.129 652.366 159.578 659.487 138.801 647.486C118.023 635.486 110.902 608.921 122.903 588.158Z" fill="url(#paint3_linear_2163_2859)"/>
<path d="M137.115 563.54C152.764 536.447 187.403 527.158 214.51 542.807C241.603 558.456 250.893 593.094 235.244 620.202C219.595 647.295 184.956 656.584 157.849 640.935C130.756 625.286 121.466 590.647 137.115 563.54Z" fill="url(#paint4_linear_2163_2859)"/>
<path d="M157.922 527.51C178.479 491.889 224.02 479.698 259.64 500.256C295.246 520.813 307.452 566.354 286.894 601.974C266.337 637.595 220.796 649.786 185.176 629.228C149.555 608.671 137.364 563.13 157.922 527.51Z" fill="url(#paint5_linear_2163_2859)"/>
<path d="M188.532 474.469C216.313 426.335 277.869 409.851 325.988 437.632C374.122 465.414 390.606 526.969 362.825 575.089C335.043 623.223 273.488 639.707 225.368 611.925C177.234 584.144 160.75 522.588 188.532 474.469Z" fill="url(#paint6_linear_2163_2859)"/>
<path d="M230.086 402.507C266.967 338.636 348.641 316.745 412.512 353.626C476.383 390.506 498.274 472.18 461.393 536.051C424.512 599.922 342.838 621.813 278.967 584.932C215.096 548.052 193.205 466.378 230.086 402.507Z" fill="url(#paint7_linear_2163_2859)"/>
<path d="M284.038 309.052C333.139 224.023 441.862 194.879 526.891 243.98C611.92 293.066 641.064 401.804 591.963 486.833C542.877 571.862 434.14 601.006 349.11 551.905C264.081 502.819 234.937 394.082 284.038 309.052Z" fill="url(#paint8_linear_2163_2859)"/>
<path d="M343.424 206.206C405.918 97.9521 544.356 60.8516 652.61 123.36C760.864 185.868 797.964 324.292 735.456 432.545C672.948 540.799 534.524 577.9 426.27 515.391C318.017 452.883 280.916 314.46 343.424 206.206Z" fill="url(#paint9_linear_2163_2859)"/>
</g>
</g>
<defs>
<linearGradient id="paint0_linear_2163_2859" x1="117.596" y1="635.171" x2="111.849" y2="659.544" gradientUnits="userSpaceOnUse">
<stop stop-color="#DA3232"/>
<stop offset="1" stop-color="#181818"/>
</linearGradient>
<linearGradient id="paint1_linear_2163_2859" x1="129.205" y1="626.901" x2="120.768" y2="662.683" gradientUnits="userSpaceOnUse">
<stop stop-color="#DA3232"/>
<stop offset="1" stop-color="#181818"/>
</linearGradient>
<linearGradient id="paint2_linear_2163_2859" x1="143.2" y1="615.536" x2="131.704" y2="664.292" gradientUnits="userSpaceOnUse">
<stop stop-color="#DA3232"/>
<stop offset="1" stop-color="#181818"/>
</linearGradient>
<linearGradient id="paint3_linear_2163_2859" x1="162.775" y1="600.286" x2="147.85" y2="663.59" gradientUnits="userSpaceOnUse">
<stop stop-color="#DA3232"/>
<stop offset="1" stop-color="#181818"/>
</linearGradient>
<linearGradient id="paint4_linear_2163_2859" x1="189.127" y1="579.366" x2="169.658" y2="661.938" gradientUnits="userSpaceOnUse">
<stop stop-color="#DA3232"/>
<stop offset="1" stop-color="#181818"/>
</linearGradient>
<linearGradient id="paint5_linear_2163_2859" x1="226.279" y1="548.307" x2="200.692" y2="656.829" gradientUnits="userSpaceOnUse">
<stop stop-color="#DA3232"/>
<stop offset="1" stop-color="#181818"/>
</linearGradient>
<linearGradient id="paint6_linear_2163_2859" x1="280.912" y1="502.569" x2="246.335" y2="649.222" gradientUnits="userSpaceOnUse">
<stop stop-color="#DA3232"/>
<stop offset="1" stop-color="#181818"/>
</linearGradient>
<linearGradient id="paint7_linear_2163_2859" x1="352.686" y1="439.803" x2="306.797" y2="634.435" gradientUnits="userSpaceOnUse">
<stop stop-color="#DA3232"/>
<stop offset="1" stop-color="#181818"/>
</linearGradient>
<linearGradient id="paint8_linear_2163_2859" x1="447.248" y1="358.702" x2="386.158" y2="617.808" gradientUnits="userSpaceOnUse">
<stop stop-color="#DA3232"/>
<stop offset="1" stop-color="#181818"/>
</linearGradient>
<linearGradient id="paint9_linear_2163_2859" x1="551.213" y1="269.417" x2="473.437" y2="599.293" gradientUnits="userSpaceOnUse">
<stop stop-color="#DA3232"/>
<stop offset="1" stop-color="#181818"/>
</linearGradient>
<clipPath id="clip0_2163_2859">
<rect width="860" height="750" fill="white"/>
</clipPath>
<clipPath id="clip1_2163_2859">
<rect width="665.816" height="563.863" fill="white" transform="translate(100 93)"/>
</clipPath>
</defs>
</svg>
