<svg width="860" height="750" viewBox="0 0 860 750" fill="none" xmlns="http://www.w3.org/2000/svg">
  <g clip-path="url(#a)">
    <g clip-path="url(#b)">
      <path fill="url(#c)" d="M169 426.899c0 24.016 19.295 43.483 43.119 43.483 23.823 0 43.118-19.467 43.118-43.483 0-24.017-19.295-43.484-43.118-43.484-23.824 0-43.119 19.467-43.119 43.484Z"/>
      <path fill="url(#d)" d="M545.821 121.805c0 34.405 27.752 62.307 61.985 62.307 34.233 0 61.984-27.902 61.984-62.307 0-34.404-27.751-62.306-61.984-62.306-34.233 0-61.985 27.902-61.985 62.306Z"/>
      <path fill="url(#e)" d="M456.279 720.809c-28.632 0-51.854-23.222-51.854-51.854V294.109c0-28.631 23.222-51.854 51.854-51.854 28.631 0 51.854 23.223 51.854 51.854v374.846c0 28.632-23.223 51.854-51.854 51.854Z"/>
      <path fill="url(#f)" d="M508.133 293.036c0-28.524-23.116-51.64-51.64-51.64s-51.639 23.116-51.639 51.64 23.115 51.639 51.639 51.639c28.524 0 51.64-23.115 51.64-51.639Z"/>
      <path fill="url(#g)" d="M623.345 325.444c0 12.406 9.894 22.472 22.106 22.472 12.213 0 22.107-10.066 22.107-22.472 0-12.405-9.894-22.471-22.107-22.471-12.212 0-22.106 10.066-22.106 22.471Z"/>
      <path fill="url(#h)" d="M625.169 63.427c3.82-11.804-2.49-24.425-14.101-28.18-11.612-3.756-24.124 2.747-27.945 14.551-3.82 11.805 2.49 24.425 14.101 28.18 11.612 3.757 24.124-2.746 27.945-14.55Z"/>
      <path fill="url(#i)" d="m313.203 245.015-43.474 11.649 11.649 43.474 43.474-11.649-11.649-43.474Z"/>
      <path fill="url(#j)" d="m389.233 526.903-31.825 31.825 31.825 31.825 31.825-31.825-31.825-31.825Z"/>
      <path fill="url(#k)" fill-rule="evenodd" d="M343.256 38.766a14.42 14.42 0 0 1-10.238-4.25l-6.267-6.266c-5.666-5.666-14.831-5.666-20.497 0l-6.267 6.267a14.458 14.458 0 0 1-10.238 4.25h-8.864c-8.006 0-14.487 6.481-14.487 14.487v8.864a14.42 14.42 0 0 1-4.25 10.238l-6.267 6.267c-5.666 5.666-5.666 14.83 0 20.497l6.267 6.267a14.456 14.456 0 0 1 4.25 10.237v8.864c0 8.006 6.481 14.488 14.487 14.488h8.864c3.842 0 7.534 1.524 10.259 4.249l6.267 6.268c5.667 5.666 14.831 5.666 20.497 0l6.267-6.268a14.474 14.474 0 0 1 10.26-4.249h8.864c8.005 0 14.487-6.482 14.487-14.488v-8.864a14.42 14.42 0 0 1 4.25-10.237l6.267-6.267c5.666-5.667 5.666-14.831 0-20.497l-6.267-6.267a14.457 14.457 0 0 1-4.25-10.238v-8.864c0-8.006-6.482-14.488-14.487-14.488h-8.907Z" clip-rule="evenodd"/>
      <path fill="url(#l)" d="M602.934 593.171v-88.126h88.126l-88.126 88.126Z"/>
    </g>
  </g>
  <defs>
    <linearGradient id="c" x1="264.445" x2="134.745" y1="405.135" y2="459.114" gradientUnits="userSpaceOnUse">
      <stop stop-color="#181818"/>
      <stop offset="1" stop-color="#929292"/>
    </linearGradient>
    <linearGradient id="d" x1="545.735" x2="703.701" y1="183.468" y2="26.575" gradientUnits="userSpaceOnUse">
      <stop stop-color="#181818"/>
      <stop offset="1" stop-color="#929292"/>
    </linearGradient>
    <linearGradient id="e" x1="456.279" x2="456.279" y1="308.682" y2="549.494" gradientUnits="userSpaceOnUse">
      <stop stop-color="#EF7D00"/>
      <stop offset="1" stop-color="#181818"/>
    </linearGradient>
    <linearGradient id="f" x1="446.462" x2="351.131" y1="250.876" y2="339.055" gradientUnits="userSpaceOnUse">
      <stop stop-color="#FF7527"/>
      <stop offset="1" stop-color="#121212"/>
    </linearGradient>
    <linearGradient id="g" x1="614.738" x2="681.058" y1="314.541" y2="338.107" gradientUnits="userSpaceOnUse">
      <stop stop-color="#181818"/>
      <stop offset="1" stop-color="#929292"/>
    </linearGradient>
    <linearGradient id="h" x1="640.146" x2="580.585" y1="47.169" y2="62.91" gradientUnits="userSpaceOnUse">
      <stop stop-color="#181818"/>
      <stop offset="1" stop-color="#929292"/>
    </linearGradient>
    <linearGradient id="i" x1="344.335" x2="261.375" y1="262.937" y2="279.967" gradientUnits="userSpaceOnUse">
      <stop stop-color="#181818"/>
      <stop offset="1" stop-color="#929292"/>
    </linearGradient>
    <linearGradient id="j" x1="389.233" x2="389.218" y1="509.51" y2="582.008" gradientUnits="userSpaceOnUse">
      <stop stop-color="#181818"/>
      <stop offset="1" stop-color="#929292"/>
    </linearGradient>
    <linearGradient id="k" x1="362.336" x2="243.862" y1="161.233" y2="-25.729" gradientUnits="userSpaceOnUse">
      <stop stop-color="#181818"/>
      <stop offset="1" stop-color="#929292"/>
    </linearGradient>
    <linearGradient id="l" x1="580.698" x2="702.628" y1="466.112" y2="618.733" gradientUnits="userSpaceOnUse">
      <stop stop-color="#181818"/>
      <stop offset="1" stop-color="#929292"/>
    </linearGradient>
    <clipPath id="a">
      <path fill="#fff" d="M0 0h860v750H0z"/>
    </clipPath>
    <clipPath id="b">
      <path fill="#fff" d="M169 24h522.06v696.809H169z"/>
    </clipPath>
  </defs>
</svg>
