<svg width="860" height="749" viewBox="0 0 860 749" fill="none" xmlns="http://www.w3.org/2000/svg">
<g clip-path="url(#clip0_2163_2727)">
<g clip-path="url(#clip1_2163_2727)">
<path d="M559.62 211H190.161C160.08 211 135.694 235.44 135.694 265.588C135.694 295.736 160.08 320.175 190.161 320.175H559.62C589.702 320.175 614.087 295.736 614.087 265.588C614.087 235.44 589.702 211 559.62 211Z" fill="url(#paint0_linear_2163_2727)"/>
<path d="M443.001 428.807H179.468C149.386 428.807 125 453.246 125 483.394C125 513.542 149.386 537.982 179.468 537.982H443.001C473.083 537.982 497.469 513.542 497.469 483.394C497.469 453.246 473.083 428.807 443.001 428.807Z" fill="url(#paint1_linear_2163_2727)"/>
<path d="M559.603 211C529.516 211 505.135 235.435 505.135 265.588C505.135 295.741 529.516 320.175 559.603 320.175C589.689 320.175 614.07 295.741 614.07 265.588C614.07 235.435 589.689 211 559.603 211Z" fill="url(#paint2_linear_2163_2727)"/>
<path d="M443.002 428.807C412.915 428.807 388.534 453.241 388.534 483.394C388.534 513.547 412.915 537.982 443.002 537.982C473.088 537.982 497.469 513.547 497.469 483.394C497.469 453.241 473.088 428.807 443.002 428.807Z" fill="url(#paint3_linear_2163_2727)"/>
<path d="M685.095 320.457H315.636C285.555 320.457 261.169 344.897 261.169 375.045C261.169 405.193 285.555 429.632 315.636 429.632H685.095C715.177 429.632 739.563 405.193 739.563 375.045C739.563 344.897 715.177 320.457 685.095 320.457Z" fill="url(#paint4_linear_2163_2727)"/>
<path d="M685.515 429.368C715.602 429.368 739.982 405.056 739.982 375.043C739.982 345.031 715.602 320.719 685.515 320.719C655.428 320.719 631.047 345.031 631.047 375.043C631.047 405.056 655.428 429.368 685.515 429.368Z" fill="url(#paint5_linear_2163_2727)"/>
</g>
</g>
<defs>
<linearGradient id="paint0_linear_2163_2727" x1="334.784" y1="265.588" x2="534.224" y2="265.588" gradientUnits="userSpaceOnUse">
<stop stop-color="#181818"/>
<stop offset="1" stop-color="#929292"/>
</linearGradient>
<linearGradient id="paint1_linear_2163_2727" x1="217.465" y1="483.394" x2="415.068" y2="483.394" gradientUnits="userSpaceOnUse">
<stop stop-color="#181818"/>
<stop offset="1" stop-color="#929292"/>
</linearGradient>
<linearGradient id="paint2_linear_2163_2727" x1="633.095" y1="265.588" x2="503.665" y2="265.588" gradientUnits="userSpaceOnUse">
<stop stop-color="#100C08"/>
<stop offset="1" stop-color="#929292"/>
</linearGradient>
<linearGradient id="paint3_linear_2163_2727" x1="477.586" y1="483.412" x2="388.517" y2="483.412" gradientUnits="userSpaceOnUse">
<stop stop-color="#181818"/>
<stop offset="1" stop-color="#A9A9A9"/>
</linearGradient>
<linearGradient id="paint4_linear_2163_2727" x1="367.339" y1="375.045" x2="566.761" y2="375.045" gradientUnits="userSpaceOnUse">
<stop stop-color="#181818"/>
<stop offset="0.18" stop-color="#181818"/>
<stop offset="0.32" stop-color="#0F190F"/>
<stop offset="0.45" stop-color="#0E2918"/>
<stop offset="0.56" stop-color="#0D3F25"/>
<stop offset="0.62" stop-color="#11482B"/>
<stop offset="0.74" stop-color="#006A3E"/>
<stop offset="0.88" stop-color="#1FAE72"/>
<stop offset="1" stop-color="#01F28D"/>
</linearGradient>
<linearGradient id="paint5_linear_2163_2727" x1="711.506" y1="375.043" x2="569.911" y2="375.043" gradientUnits="userSpaceOnUse">
<stop stop-color="#01F28D"/>
<stop offset="1" stop-color="#001502"/>
</linearGradient>
<clipPath id="clip0_2163_2727">
<rect width="860" height="750" fill="white"/>
</clipPath>
<clipPath id="clip1_2163_2727">
<rect width="615" height="327" fill="white" transform="translate(125 211)"/>
</clipPath>
</defs>
</svg>
