<svg width="860" height="748" viewBox="0 0 860 748" fill="none" xmlns="http://www.w3.org/2000/svg">
<g clip-path="url(#clip0_2163_2754)">
<path d="M330.136 543.588C293.68 522.389 247.073 534.987 226.03 571.729L198.172 466.854C219.216 430.135 265.846 417.537 302.279 438.713L330.136 543.588Z" fill="url(#paint0_linear_2163_2754)"/>
<path d="M380.87 482.514C360.382 494.434 334.216 488.124 321.33 468.163L302.303 438.713L330.16 543.588L349.188 573.038C362.097 592.999 388.24 599.31 408.727 587.389L380.87 482.514Z" fill="url(#paint1_linear_2163_2754)"/>
<path d="M380.87 482.538L408.727 587.413L522.244 392.645L494.386 287.77L380.87 482.538Z" fill="url(#paint2_linear_2163_2754)"/>
<path d="M626.304 363.755L727.769 173.936L692.356 62.166L598.724 259.931L626.304 363.779V363.755Z" fill="url(#paint3_linear_2163_2754)"/>
<path d="M626.304 364.783C589.848 343.584 543.241 356.182 522.197 392.925L494.34 288.049C515.384 251.33 562.014 238.732 598.447 259.908L626.304 364.783Z" fill="url(#paint4_linear_2163_2754)"/>
<path d="M226.03 571.707L158.816 687.377L131.237 583.53L198.172 466.832L226.053 571.684L226.03 571.707Z" fill="url(#paint5_linear_2163_2754)"/>
</g>
<defs>
<linearGradient id="paint0_linear_2163_2754" x1="313.913" y1="466.013" x2="222.333" y2="528.862" gradientUnits="userSpaceOnUse">
<stop stop-color="#422562"/>
<stop offset="1" stop-color="#831F82"/>
</linearGradient>
<linearGradient id="paint1_linear_2163_2754" x1="316.649" y1="523.067" x2="385.447" y2="507.427" gradientUnits="userSpaceOnUse">
<stop stop-color="#422562"/>
<stop offset="1" stop-color="#831F82"/>
</linearGradient>
<linearGradient id="paint2_linear_2163_2754" x1="273.68" y1="359.946" x2="525.367" y2="467.942" gradientUnits="userSpaceOnUse">
<stop offset="0.04" stop-color="#520B2E"/>
<stop offset="1" stop-color="#DE007E"/>
</linearGradient>
<linearGradient id="paint3_linear_2163_2754" x1="692.68" y1="165.504" x2="537.214" y2="223.652" gradientUnits="userSpaceOnUse">
<stop stop-color="#181818"/>
<stop offset="1" stop-color="#FFE500"/>
</linearGradient>
<linearGradient id="paint4_linear_2163_2754" x1="663.154" y1="278.279" x2="509.11" y2="335.412" gradientUnits="userSpaceOnUse">
<stop stop-color="#121212"/>
<stop offset="1" stop-color="#FFE500"/>
</linearGradient>
<linearGradient id="paint5_linear_2163_2754" x1="239.101" y1="577.34" x2="136.472" y2="615.637" gradientUnits="userSpaceOnUse">
<stop stop-color="#0069B4"/>
<stop offset="1" stop-color="#181818"/>
</linearGradient>
<clipPath id="clip0_2163_2754">
<rect width="860" height="750" fill="white"/>
</clipPath>
</defs>
</svg>
