<svg width="860" height="750" viewBox="0 0 860 750" fill="none" xmlns="http://www.w3.org/2000/svg">
  <g clip-path="url(#a)">
    <path fill="url(#b)" d="M131 375.502c0 119.328 96.799 216.063 216.205 216.063 119.407 0 216.206-96.735 216.206-216.063 0-119.328-96.799-216.063-216.206-216.063C227.799 159.439 131 256.174 131 375.502Z"/>
    <path fill="url(#c)" d="M402.333 375.498c0 88.841 72.117 160.861 161.078 160.861 88.96 0 161.077-72.02 161.077-160.861s-72.117-160.861-161.077-160.861c-88.961 0-161.078 72.02-161.078 160.861Z"/>
    <mask id="e" width="816" height="817" x="155" y="-33" maskUnits="userSpaceOnUse" style="mask-type:alpha">
      <path fill="url(#d)" d="M155.963 375.5c0 225.08 182.413 407.544 407.431 407.544 225.017 0 407.43-182.464 407.43-407.544 0-225.08-182.413-407.543-407.43-407.543-225.018 0-407.431 182.463-407.431 407.543Z"/>
    </mask>
    <g mask="url(#e)">
      <path fill="url(#f)" d="M131 375.502c0 119.328 96.798 216.063 216.205 216.063 119.407 0 216.205-96.735 216.205-216.063 0-119.328-96.798-216.063-216.205-216.063C227.798 159.439 131 256.174 131 375.502Z"/>
    </g>
    <mask id="h" width="737" height="737" x="195" y="7" maskUnits="userSpaceOnUse" style="mask-type:alpha">
      <path fill="url(#g)" d="M195.586 375.498c0 203.167 164.673 367.867 367.808 367.867 203.134 0 367.807-164.699 367.807-367.867 0-203.167-164.673-367.867-367.807-367.867-203.135 0-367.808 164.7-367.808 367.867Z"/>
    </mask>
    <g mask="url(#h)">
      <path fill="url(#i)" d="M131 375.498c0 119.328 96.799 216.063 216.205 216.063 119.407 0 216.206-96.735 216.206-216.063 0-119.328-96.799-216.062-216.206-216.062C227.799 159.436 131 256.17 131 375.498Z"/>
    </g>
    <mask id="k" width="639" height="639" x="244" y="56" maskUnits="userSpaceOnUse" style="mask-type:alpha">
      <path fill="url(#j)" d="M244.685 375.498c0 176.015 142.691 318.703 318.709 318.703s318.709-142.688 318.709-318.703S739.412 56.795 563.394 56.795 244.685 199.483 244.685 375.498Z"/>
    </mask>
    <g mask="url(#k)">
      <path fill="url(#l)" d="M131.001 375.498c0 119.328 96.798 216.063 216.205 216.063 119.407 0 216.205-96.735 216.205-216.063 0-119.328-96.798-216.062-216.205-216.062-119.407 0-216.205 96.734-216.205 216.062Z"/>
    </g>
    <mask id="n" width="539" height="539" x="294" y="106" maskUnits="userSpaceOnUse" style="mask-type:alpha">
      <path fill="url(#m)" d="M294.645 375.503c0 148.386 120.323 268.677 268.749 268.677 148.426 0 268.749-120.291 268.749-268.677 0-148.386-120.323-268.677-268.749-268.677-148.426 0-268.749 120.291-268.749 268.677Z"/>
    </mask>
    <g mask="url(#n)">
      <path fill="url(#o)" d="M131.001 375.502c0 119.328 96.798 216.063 216.205 216.063 119.407 0 216.205-96.735 216.205-216.063 0-119.328-96.798-216.063-216.205-216.063-119.407 0-216.205 96.735-216.205 216.063Z"/>
    </g>
    <mask id="q" width="433" height="433" x="347" y="159" maskUnits="userSpaceOnUse" style="mask-type:alpha">
      <path fill="url(#p)" d="M347.189 375.498c0 119.328 96.798 216.063 216.205 216.063 119.407 0 216.205-96.735 216.205-216.063 0-119.328-96.798-216.062-216.205-216.062-119.407 0-216.205 96.734-216.205 216.062Z"/>
    </mask>
    <g mask="url(#q)">
      <path fill="url(#r)" d="M131 375.498c0 119.328 96.799 216.063 216.205 216.063 119.407 0 216.206-96.735 216.206-216.063 0-119.328-96.799-216.062-216.206-216.062C227.799 159.436 131 256.17 131 375.498Z"/>
    </g>
    <mask id="t" width="323" height="323" x="402" y="214" maskUnits="userSpaceOnUse" style="mask-type:alpha">
      <path fill="url(#s)" d="M402.333 375.502c0 88.841 72.117 160.861 161.078 160.861 88.96 0 161.077-72.02 161.077-160.861s-72.117-160.861-161.077-160.861c-88.961 0-161.078 72.02-161.078 160.861Z"/>
    </mask>
    <g mask="url(#t)">
      <path fill="url(#u)" d="M131 375.5c0 119.328 96.798 216.063 216.205 216.063 119.407 0 216.205-96.735 216.205-216.063 0-119.328-96.798-216.063-216.205-216.063C227.798 159.437 131 256.172 131 375.5Z"/>
    </g>
  </g>
  <defs>
    <linearGradient id="b" x1="314.447" x2="333.397" y1="615.529" y2="31.937" gradientUnits="userSpaceOnUse">
      <stop stop-color="#983DE0"/>
      <stop offset="1" stop-color="#121212"/>
    </linearGradient>
    <linearGradient id="c" x1="896.475" x2="539.38" y1="119.252" y2="107.679" gradientUnits="userSpaceOnUse">
      <stop stop-color="#983DE0"/>
      <stop offset="1" stop-color="#121212"/>
    </linearGradient>
    <linearGradient id="d" x1="1405.85" x2="257.921" y1="-273.702" y2="-310.843" gradientUnits="userSpaceOnUse">
      <stop stop-color="#983DE0"/>
      <stop offset="1" stop-color="#121212"/>
    </linearGradient>
    <linearGradient id="f" x1="320.916" x2="446.927" y1="812.803" y2="150.213" gradientUnits="userSpaceOnUse">
      <stop offset=".215" stop-color="#983DE0"/>
      <stop offset="1" stop-color="#121212"/>
    </linearGradient>
    <linearGradient id="g" x1="1323.92" x2="287.629" y1="-210.501" y2="-244.034" gradientUnits="userSpaceOnUse">
      <stop stop-color="#983DE0"/>
      <stop offset="1" stop-color="#121212"/>
    </linearGradient>
    <linearGradient id="i" x1="629.288" x2="331.563" y1="657.544" y2="83.698" gradientUnits="userSpaceOnUse">
      <stop offset=".215" stop-color="#983DE0"/>
      <stop offset="1" stop-color="#121212"/>
    </linearGradient>
    <linearGradient id="j" x1="1222.4" x2="324.441" y1="-132.185" y2="-161.247" gradientUnits="userSpaceOnUse">
      <stop stop-color="#983DE0"/>
      <stop offset="1" stop-color="#121212"/>
    </linearGradient>
    <linearGradient id="l" x1="629.289" x2="222.419" y1="657.544" y2="363.246" gradientUnits="userSpaceOnUse">
      <stop stop-color="#983DE0"/>
      <stop offset="1" stop-color="#121212"/>
    </linearGradient>
    <linearGradient id="m" x1="1119.09" x2="523.299" y1="-52.49" y2="-71.777" gradientUnits="userSpaceOnUse">
      <stop stop-color="#983DE0"/>
      <stop offset="1" stop-color="#121212"/>
    </linearGradient>
    <linearGradient id="o" x1="920.003" x2="443.462" y1="704.124" y2="211.899" gradientUnits="userSpaceOnUse">
      <stop stop-color="#983DE0"/>
      <stop offset="1" stop-color="#121212"/>
    </linearGradient>
    <linearGradient id="p" x1="1010.45" x2="531.138" y1="31.318" y2="15.796" gradientUnits="userSpaceOnUse">
      <stop stop-color="#983DE0"/>
      <stop offset="1" stop-color="#121212"/>
    </linearGradient>
    <linearGradient id="r" x1="1061.7" x2="347.937" y1="375.929" y2="352.814" gradientUnits="userSpaceOnUse">
      <stop stop-color="#983DE0"/>
      <stop offset="1" stop-color="#121212"/>
    </linearGradient>
    <linearGradient id="s" x1="896.475" x2="539.38" y1="119.256" y2="107.683" gradientUnits="userSpaceOnUse">
      <stop stop-color="#983DE0"/>
      <stop offset="1" stop-color="#121212"/>
    </linearGradient>
    <linearGradient id="u" x1="395.873" x2="759.853" y1="375.069" y2="386.857" gradientUnits="userSpaceOnUse">
      <stop stop-color="#983DE0"/>
      <stop offset="1" stop-color="#121212"/>
    </linearGradient>
    <clipPath id="a">
      <path fill="#fff" d="M0 0h860v750H0z"/>
    </clipPath>
  </defs>
</svg>
