<svg width="1445" height="849" viewBox="0 0 1445 849" fill="none" xmlns="http://www.w3.org/2000/svg">
<path d="M1067.5 332.101C942.96 332.101 842 433.06 842 557.6C842 682.141 942.96 783.1 1067.5 783.1C1192.04 783.1 1293 682.141 1293 557.6C1293 433.06 1192.04 332.101 1067.5 332.101Z" stroke="url(#paint0_linear_954_2544)" stroke-opacity="0.5" stroke-width="91.9843" stroke-miterlimit="10" stroke-linecap="round" stroke-linejoin="round"/>
<path d="M1155 557.55C1155 509.225 1115.82 470.05 1067.5 470.05C1019.18 470.05 980 509.225 980 557.55C980 605.875 1019.18 645.05 1067.5 645.05C1115.82 645.05 1155 605.875 1155 557.55Z" fill="url(#paint1_linear_954_2544)"/>
<rect x="934.018" y="691.083" width="627.083" height="263.557" rx="131.778" transform="rotate(-90 934.018 691.083)" stroke="url(#paint2_linear_954_2544)" stroke-opacity="0.5" stroke-width="91.9843" stroke-miterlimit="10" stroke-linecap="round" stroke-linejoin="round"/>
<defs>
<linearGradient id="paint0_linear_954_2544" x1="861.842" y1="968.674" x2="931.407" y2="-91.0452" gradientUnits="userSpaceOnUse">
<stop stop-color="#929292"/>
<stop offset="1" stop-color="#121212" stop-opacity="0"/>
</linearGradient>
<linearGradient id="paint1_linear_954_2544" x1="1080.76" y1="460.345" x2="1073.08" y2="696.685" gradientUnits="userSpaceOnUse">
<stop stop-color="#84C663"/>
<stop offset="1" stop-color="#DEB048"/>
</linearGradient>
<linearGradient id="paint2_linear_954_2544" x1="663.011" y1="910.018" x2="1498.11" y2="1011.94" gradientUnits="userSpaceOnUse">
<stop stop-color="#121212" stop-opacity="0"/>
<stop offset="1" stop-color="#7E7E7E"/>
</linearGradient>
</defs>
</svg>
