<svg width="140" height="40" viewBox="0 0 140 40" fill="none" xmlns="http://www.w3.org/2000/svg">
  <path fill="#fff" d="M63.634 32.45h-3.132l-.685-2.293c-1.327 1.871-3.143 2.807-5.449 2.807-2.414 0-4.317-.913-5.709-2.738-1.261-1.666-1.892-3.846-1.892-6.538 0-3.24.815-5.717 2.447-7.428 1.348-1.415 3.1-2.123 5.252-2.123 2.24 0 3.992.845 5.253 2.533V7.805h3.915V32.45ZM50.78 23.722c0 2.099.478 3.662 1.435 4.69.783.866 1.806 1.3 3.067 1.3 1.544 0 2.719-.593 3.524-1.78.718-1.05 1.076-2.465 1.076-4.245 0-2.236-.5-3.902-1.5-4.997-.783-.867-1.816-1.3-3.1-1.3-1.5 0-2.643.592-3.426 1.78-.717 1.072-1.076 2.59-1.076 4.552Zm26.92 3.594h4.112c-.457 1.825-1.403 3.24-2.839 4.244-1.37.936-3.056 1.404-5.057 1.404-2.762 0-4.916-.913-6.46-2.738-1.414-1.666-2.12-3.891-2.12-6.675 0-3.195.88-5.637 2.642-7.325 1.48-1.392 3.404-2.088 5.775-2.088 2.762 0 4.85.947 6.264 2.84 1.327 1.758 1.99 4.268 1.99 7.531H69.316c.152 1.917.718 3.32 1.696 4.21.783.73 1.806 1.096 3.067 1.096.892 0 1.664-.228 2.317-.685a3.263 3.263 0 0 0 1.305-1.814Zm.294-5.614c-.087-1.666-.565-2.886-1.435-3.663-.718-.661-1.653-.992-2.806-.992-1.261 0-2.273.433-3.034 1.3-.696.776-1.142 1.895-1.338 3.355h8.613Zm8.871 5.682c.305 1.712 1.533 2.568 3.687 2.568 1.196 0 2.098-.24 2.708-.72.5-.41.75-.946.75-1.608 0-.844-.435-1.472-1.305-1.883-.5-.228-1.599-.547-3.295-.958-2.088-.502-3.578-1.187-4.47-2.054-.892-.844-1.338-1.95-1.338-3.32 0-1.735.675-3.07 2.023-4.005 1.196-.845 2.839-1.267 4.927-1.267 2.153 0 3.882.537 5.187 1.609 1.132.913 1.838 2.145 2.121 3.697h-3.98c-.326-1.53-1.457-2.294-3.393-2.294-1.958 0-2.937.628-2.937 1.883 0 .64.25 1.118.75 1.438.5.32 1.512.673 3.035 1.061 2.349.57 3.98 1.21 4.894 1.917 1.152.89 1.729 2.145 1.729 3.765 0 1.848-.718 3.298-2.153 4.347-1.306.936-3.067 1.404-5.286 1.404-2.327 0-4.187-.582-5.58-1.746-1.174-.981-1.858-2.259-2.054-3.834h3.98Zm17.237-15.437h-4.307V7.805h4.307v4.142Zm-.196 20.503h-3.915v-17.8h3.915v17.8Zm2.645 1.164h4.111c.413 1.643 1.707 2.465 3.882 2.465 2.806 0 4.209-1.404 4.209-4.21v-1.986c-1.283 1.37-3.024 2.054-5.22 2.054-2.306 0-4.176-.856-5.612-2.567-1.327-1.598-1.99-3.663-1.99-6.196 0-2.99.816-5.305 2.447-6.949 1.37-1.392 3.132-2.088 5.285-2.088 2.262 0 4.024.867 5.286 2.602l.619-2.088h3.1v17.183c0 2.35-.805 4.188-2.414 5.511-1.436 1.187-3.329 1.78-5.677 1.78-2.523 0-4.492-.559-5.906-1.677-1.152-.936-1.859-2.214-2.12-3.834Zm3.393-10.406c0 1.849.489 3.275 1.468 4.279.805.799 1.816 1.198 3.034 1.198 1.566 0 2.752-.536 3.557-1.609.695-.935 1.043-2.213 1.043-3.833 0-2.031-.478-3.56-1.435-4.587-.783-.845-1.838-1.267-3.165-1.267-1.457 0-2.588.548-3.393 1.643-.739 1.004-1.109 2.396-1.109 4.176Zm19.028 9.242h-3.915v-17.8h3.23l.424 2.123c1.24-1.757 2.958-2.636 5.155-2.636 2.045 0 3.611.662 4.699 1.986.956 1.163 1.435 2.75 1.435 4.758v11.57h-3.915V20.982c0-2.441-1.077-3.662-3.23-3.662-1.175 0-2.132.433-2.871 1.3-.674.8-1.011 1.803-1.011 3.013l-.001 10.816Z"/>
  <path fill="url(#a)" d="M13.397 32.402c-6.503 0-8.716-8.043-9.212-9.608a42.81 42.81 0 0 1-1.664-7.84c-.232-2.144 1.526-3.635 3.455-3.635a3.305 3.305 0 0 1 2.292.8 3.17 3.17 0 0 1 1.088 2.13c.245 2.25.71 4.473 1.387 6.638 1.096 3.422 2.26 4.738 3.097 4.738 1.352 0 2.177-3.397 2.907-6.632.537-2.383 1.118-4.785 2.265-6.918 1.995-3.711 5.01-4.575 7.616-4.575 5.712 0 8.57 6.473 8.57 8.15a3.26 3.26 0 0 1-.195 1.32 3.33 3.33 0 0 1-.71 1.14 3.394 3.394 0 0 1-1.112.773c-.42.182-.873.278-1.332.284-2.216 0-2.967-1.452-3.599-2.725-.569-1.145-1.163-2.097-1.93-2.097a1.014 1.014 0 0 0-.703.34C23.71 16.582 23.07 26.506 19.253 30.3c-2.115 2.103-4.417 2.103-5.856 2.103Z"/>
  <path fill="url(#b)" d="M13.397 32.402c-6.503 0-8.716-8.043-9.212-9.608a42.81 42.81 0 0 1-1.664-7.84c-.232-2.144 1.526-3.635 3.455-3.635a3.305 3.305 0 0 1 2.292.8 3.17 3.17 0 0 1 1.088 2.13c.245 2.25.71 4.473 1.387 6.638 1.096 3.422 2.26 4.738 3.097 4.738 1.352 0 2.177-3.397 2.907-6.632.537-2.383 1.118-4.785 2.265-6.918 1.995-3.711 5.01-4.575 7.616-4.575 5.712 0 8.57 6.473 8.57 8.15a3.26 3.26 0 0 1-.195 1.32 3.33 3.33 0 0 1-.71 1.14 3.394 3.394 0 0 1-1.112.773c-.42.182-.873.278-1.332.284-2.216 0-2.967-1.452-3.599-2.725-.569-1.145-1.163-2.097-1.93-2.097a1.014 1.014 0 0 0-.703.34C23.71 16.582 23.07 26.506 19.253 30.3c-2.115 2.103-4.417 2.103-5.856 2.103Z"/>
  <path fill="url(#c)" d="M13.397 32.402c-6.503 0-8.716-8.043-9.212-9.608a42.81 42.81 0 0 1-1.664-7.84c-.232-2.144 1.526-3.635 3.455-3.635a3.305 3.305 0 0 1 2.292.8 3.17 3.17 0 0 1 1.088 2.13c.245 2.25.71 4.473 1.387 6.638 1.096 3.422 2.26 4.738 3.097 4.738 1.352 0 2.177-3.397 2.907-6.632.537-2.383 1.118-4.785 2.265-6.918 1.995-3.711 5.01-4.575 7.616-4.575 5.712 0 8.57 6.473 8.57 8.15a3.26 3.26 0 0 1-.195 1.32 3.33 3.33 0 0 1-.71 1.14 3.394 3.394 0 0 1-1.112.773c-.42.182-.873.278-1.332.284-2.216 0-2.967-1.452-3.599-2.725-.569-1.145-1.163-2.097-1.93-2.097a1.014 1.014 0 0 0-.703.34C23.71 16.582 23.07 26.506 19.253 30.3c-2.115 2.103-4.417 2.103-5.856 2.103Z"/>
  <path fill="url(#d)" d="M13.397 32.402c-6.503 0-8.716-8.043-9.212-9.608a42.81 42.81 0 0 1-1.664-7.84c-.232-2.144 1.526-3.635 3.455-3.635a3.305 3.305 0 0 1 2.292.8 3.17 3.17 0 0 1 1.088 2.13c.245 2.25.71 4.473 1.387 6.638 1.096 3.422 2.26 4.738 3.097 4.738 1.352 0 2.177-3.397 2.907-6.632.537-2.383 1.118-4.785 2.265-6.918 1.995-3.711 5.01-4.575 7.616-4.575 5.712 0 8.57 6.473 8.57 8.15a3.26 3.26 0 0 1-.195 1.32 3.33 3.33 0 0 1-.71 1.14 3.394 3.394 0 0 1-1.112.773c-.42.182-.873.278-1.332.284-2.216 0-2.967-1.452-3.599-2.725-.569-1.145-1.163-2.097-1.93-2.097a1.014 1.014 0 0 0-.703.34C23.71 16.582 23.07 26.506 19.253 30.3c-2.115 2.103-4.417 2.103-5.856 2.103Z"/>
  <path fill="url(#e)" d="M13.397 32.402c-6.503 0-8.716-8.043-9.212-9.608a42.81 42.81 0 0 1-1.664-7.84c-.232-2.144 1.526-3.635 3.455-3.635a3.305 3.305 0 0 1 2.292.8 3.17 3.17 0 0 1 1.088 2.13c.245 2.25.71 4.473 1.387 6.638 1.096 3.422 2.26 4.738 3.097 4.738 1.352 0 2.177-3.397 2.907-6.632.537-2.383 1.118-4.785 2.265-6.918 1.995-3.711 5.01-4.575 7.616-4.575 5.712 0 8.57 6.473 8.57 8.15a3.26 3.26 0 0 1-.195 1.32 3.33 3.33 0 0 1-.71 1.14 3.394 3.394 0 0 1-1.112.773c-.42.182-.873.278-1.332.284-2.216 0-2.967-1.452-3.599-2.725-.569-1.145-1.163-2.097-1.93-2.097a1.014 1.014 0 0 0-.703.34C23.71 16.582 23.07 26.506 19.253 30.3c-2.115 2.103-4.417 2.103-5.856 2.103Z"/>
  <path fill="url(#f)" d="M13.397 32.402c-6.503 0-8.716-8.043-9.212-9.608a42.81 42.81 0 0 1-1.664-7.84c-.232-2.144 1.526-3.635 3.455-3.635a3.305 3.305 0 0 1 2.292.8 3.17 3.17 0 0 1 1.088 2.13c.245 2.25.71 4.473 1.387 6.638 1.096 3.422 2.26 4.738 3.097 4.738 1.352 0 2.177-3.397 2.907-6.632.537-2.383 1.118-4.785 2.265-6.918 1.995-3.711 5.01-4.575 7.616-4.575 5.712 0 8.57 6.473 8.57 8.15a3.26 3.26 0 0 1-.195 1.32 3.33 3.33 0 0 1-.71 1.14 3.394 3.394 0 0 1-1.112.773c-.42.182-.873.278-1.332.284-2.216 0-2.967-1.452-3.599-2.725-.569-1.145-1.163-2.097-1.93-2.097a1.014 1.014 0 0 0-.703.34C23.71 16.582 23.07 26.506 19.253 30.3c-2.115 2.103-4.417 2.103-5.856 2.103Z"/>
  <path fill="url(#g)" d="M13.397 32.402c-6.503 0-8.716-8.043-9.212-9.608a42.81 42.81 0 0 1-1.664-7.84c-.232-2.144 1.526-3.635 3.455-3.635a3.305 3.305 0 0 1 2.292.8 3.17 3.17 0 0 1 1.088 2.13c.245 2.25.71 4.473 1.387 6.638 1.096 3.422 2.26 4.738 3.097 4.738 1.352 0 2.177-3.397 2.907-6.632.537-2.383 1.118-4.785 2.265-6.918 1.995-3.711 5.01-4.575 7.616-4.575 5.712 0 8.57 6.473 8.57 8.15a3.26 3.26 0 0 1-.195 1.32 3.33 3.33 0 0 1-.71 1.14 3.394 3.394 0 0 1-1.112.773c-.42.182-.873.278-1.332.284-2.216 0-2.967-1.452-3.599-2.725-.569-1.145-1.163-2.097-1.93-2.097a1.014 1.014 0 0 0-.703.34C23.71 16.582 23.07 26.506 19.253 30.3c-2.115 2.103-4.417 2.103-5.856 2.103Z"/>
  <path fill="url(#h)" d="M13.397 32.402c-6.503 0-8.716-8.043-9.212-9.608a42.81 42.81 0 0 1-1.664-7.84c-.232-2.144 1.526-3.635 3.455-3.635a3.305 3.305 0 0 1 2.292.8 3.17 3.17 0 0 1 1.088 2.13c.245 2.25.71 4.473 1.387 6.638 1.096 3.422 2.26 4.738 3.097 4.738 1.352 0 2.177-3.397 2.907-6.632.537-2.383 1.118-4.785 2.265-6.918 1.995-3.711 5.01-4.575 7.616-4.575 5.712 0 8.57 6.473 8.57 8.15a3.26 3.26 0 0 1-.195 1.32 3.33 3.33 0 0 1-.71 1.14 3.394 3.394 0 0 1-1.112.773c-.42.182-.873.278-1.332.284-2.216 0-2.967-1.452-3.599-2.725-.569-1.145-1.163-2.097-1.93-2.097a1.014 1.014 0 0 0-.703.34C23.71 16.582 23.07 26.506 19.253 30.3c-2.115 2.103-4.417 2.103-5.856 2.103Z"/>
  <path fill="url(#i)" d="M26.627 7.5c-2.605 0-5.62.864-7.616 4.575-1.147 2.133-1.728 4.535-2.265 6.918a79.58 79.58 0 0 1-.554 2.33v10.783a6.867 6.867 0 0 0 3.061-1.807c3.816-3.793 4.456-13.717 6.364-15.614a.997.997 0 0 1 .702-.34c.768 0 1.362.952 1.93 2.097.633 1.273 1.384 2.725 3.6 2.725a3.46 3.46 0 0 0 1.332-.284c.42-.181.798-.445 1.111-.773.313-.33.555-.717.71-1.14a3.26 3.26 0 0 0 .196-1.32c0-1.678-2.858-8.15-8.57-8.15Z"/>
  <path fill="url(#j)" d="M13.397 32.402c-6.503 0-8.716-8.043-9.212-9.608a42.81 42.81 0 0 1-1.664-7.84c-.232-2.144 1.526-3.635 3.455-3.635a3.305 3.305 0 0 1 2.292.8 3.17 3.17 0 0 1 1.088 2.13c.245 2.25.71 4.473 1.387 6.638 1.096 3.422 2.26 4.738 3.097 4.738 1.352 0 2.177-3.397 2.907-6.632.537-2.383 1.118-4.785 2.265-6.918 1.995-3.711 5.01-4.575 7.616-4.575 5.712 0 8.57 6.473 8.57 8.15a3.26 3.26 0 0 1-.195 1.32 3.33 3.33 0 0 1-.71 1.14 3.394 3.394 0 0 1-1.112.773c-.42.182-.873.278-1.332.284-2.216 0-2.967-1.452-3.599-2.725-.569-1.145-1.163-2.097-1.93-2.097a1.014 1.014 0 0 0-.703.34C23.71 16.582 23.07 26.506 19.253 30.3c-2.115 2.103-4.417 2.103-5.856 2.103Z"/>
  <path fill="url(#k)" d="M13.397 32.402c-6.503 0-8.716-8.043-9.212-9.608a42.81 42.81 0 0 1-1.664-7.84c-.232-2.144 1.526-3.635 3.455-3.635a3.305 3.305 0 0 1 2.292.8 3.17 3.17 0 0 1 1.088 2.13c.245 2.25.71 4.473 1.387 6.638 1.096 3.422 2.26 4.738 3.097 4.738 1.352 0 2.177-3.397 2.907-6.632.537-2.383 1.118-4.785 2.265-6.918 1.995-3.711 5.01-4.575 7.616-4.575 5.712 0 8.57 6.473 8.57 8.15a3.26 3.26 0 0 1-.195 1.32 3.33 3.33 0 0 1-.71 1.14 3.394 3.394 0 0 1-1.112.773c-.42.182-.873.278-1.332.284-2.216 0-2.967-1.452-3.599-2.725-.569-1.145-1.163-2.097-1.93-2.097a1.014 1.014 0 0 0-.703.34C23.71 16.582 23.07 26.506 19.253 30.3c-2.115 2.103-4.417 2.103-5.856 2.103Z"/>
  <path fill="url(#l)" d="M13.397 32.402c-6.503 0-8.716-8.043-9.212-9.608a42.81 42.81 0 0 1-1.664-7.84c-.232-2.144 1.526-3.635 3.455-3.635a3.305 3.305 0 0 1 2.292.8 3.17 3.17 0 0 1 1.088 2.13c.245 2.25.71 4.473 1.387 6.638 1.096 3.422 2.26 4.738 3.097 4.738 1.352 0 2.177-3.397 2.907-6.632.537-2.383 1.118-4.785 2.265-6.918 1.995-3.711 5.01-4.575 7.616-4.575 5.712 0 8.57 6.473 8.57 8.15a3.26 3.26 0 0 1-.195 1.32 3.33 3.33 0 0 1-.71 1.14 3.394 3.394 0 0 1-1.112.773c-.42.182-.873.278-1.332.284-2.216 0-2.967-1.452-3.599-2.725-.569-1.145-1.163-2.097-1.93-2.097a1.014 1.014 0 0 0-.703.34C23.71 16.582 23.07 26.506 19.253 30.3c-2.115 2.103-4.417 2.103-5.856 2.103Z"/>
  <path fill="url(#m)" d="M13.397 32.402c-6.503 0-8.716-8.043-9.212-9.608a42.81 42.81 0 0 1-1.664-7.84c-.232-2.144 1.526-3.635 3.455-3.635a3.305 3.305 0 0 1 2.292.8 3.17 3.17 0 0 1 1.088 2.13c.245 2.25.71 4.473 1.387 6.638 1.096 3.422 2.26 4.738 3.097 4.738 1.352 0 2.177-3.397 2.907-6.632.537-2.383 1.118-4.785 2.265-6.918 1.995-3.711 5.01-4.575 7.616-4.575 5.712 0 8.57 6.473 8.57 8.15a3.26 3.26 0 0 1-.195 1.32 3.33 3.33 0 0 1-.71 1.14 3.394 3.394 0 0 1-1.112.773c-.42.182-.873.278-1.332.284-2.216 0-2.967-1.452-3.599-2.725-.569-1.145-1.163-2.097-1.93-2.097a1.014 1.014 0 0 0-.703.34C23.71 16.582 23.07 26.506 19.253 30.3c-2.115 2.103-4.417 2.103-5.856 2.103Z"/>
  <path fill="url(#n)" d="M13.397 32.402c-6.503 0-8.716-8.043-9.212-9.608a42.81 42.81 0 0 1-1.664-7.84c-.232-2.144 1.526-3.635 3.455-3.635a3.305 3.305 0 0 1 2.292.8 3.17 3.17 0 0 1 1.088 2.13c.245 2.25.71 4.473 1.387 6.638 1.096 3.422 2.26 4.738 3.097 4.738 1.352 0 2.177-3.397 2.907-6.632.537-2.383 1.118-4.785 2.265-6.918 1.995-3.711 5.01-4.575 7.616-4.575 5.712 0 8.57 6.473 8.57 8.15a3.26 3.26 0 0 1-.195 1.32 3.33 3.33 0 0 1-.71 1.14 3.394 3.394 0 0 1-1.112.773c-.42.182-.873.278-1.332.284-2.216 0-2.967-1.452-3.599-2.725-.569-1.145-1.163-2.097-1.93-2.097a1.014 1.014 0 0 0-.703.34C23.71 16.582 23.07 26.506 19.253 30.3c-2.115 2.103-4.417 2.103-5.856 2.103Z"/>
  <path fill="url(#o)" d="M13.397 32.402c-6.503 0-8.716-8.043-9.212-9.608a42.81 42.81 0 0 1-1.664-7.84c-.232-2.144 1.526-3.635 3.455-3.635a3.305 3.305 0 0 1 2.292.8 3.17 3.17 0 0 1 1.088 2.13c.245 2.25.71 4.473 1.387 6.638 1.096 3.422 2.26 4.738 3.097 4.738 1.352 0 2.177-3.397 2.907-6.632.537-2.383 1.118-4.785 2.265-6.918 1.995-3.711 5.01-4.575 7.616-4.575 5.712 0 8.57 6.473 8.57 8.15a3.26 3.26 0 0 1-.195 1.32 3.33 3.33 0 0 1-.71 1.14 3.394 3.394 0 0 1-1.112.773c-.42.182-.873.278-1.332.284-2.216 0-2.967-1.452-3.599-2.725-.569-1.145-1.163-2.097-1.93-2.097a1.014 1.014 0 0 0-.703.34C23.71 16.582 23.07 26.506 19.253 30.3c-2.115 2.103-4.417 2.103-5.856 2.103Z"/>
  <path fill="#EFEFEF" d="M34.146 11.32a4.08 4.08 0 0 0-.77.072c1.207 1.703 1.81 3.487 1.81 4.257a3.32 3.32 0 0 1-.413 1.75 3.411 3.411 0 0 1-1.271 1.295c-.536.312-1.463.462-1.759.462-.296 0-1.259-.175-1.793-.49v.073c-.142.556-.254 1.165-.449 1.757a22.865 22.865 0 0 1-1.417 3.447c-.58 1.085-1.155 1.72-1.84 1.687-.78-.038-1.412-1.02-2.197-3.797a55.493 55.493 0 0 1-.705-2.84c-.539-2.39-1.2-4.794-2.332-6.918a8.203 8.203 0 0 0-3.084-3.348A8.45 8.45 0 0 0 13.494 7.5c-2.334 0-4.077 1.08-5.447 2.442-.445.458-.85.953-1.207 1.479a3.195 3.195 0 0 1 1.735 1.004c.451.51.722 1.15.77 1.824a35.073 35.073 0 0 0 1.122 5.766 29.06 29.06 0 0 1 1.405-3.573 6.347 6.347 0 0 1 1.084-1.655 1.169 1.169 0 0 1 .807-.419c.26 0 1.15.233 2.016 3.206 1.074 3.685 1.874 9.55 4.919 12.664 1.343 1.374 3.223 2.263 5.827 2.263a7.823 7.823 0 0 0 3.022-.62 7.684 7.684 0 0 0 2.528-1.734c2.234-2.252 3.458-5.975 3.895-7.353a41.43 41.43 0 0 0 1.631-7.84c.231-2.144-1.615-3.635-3.455-3.635Z"/>
  <path fill="url(#p)" d="M34.146 11.32a4.08 4.08 0 0 0-.77.072c1.207 1.703 1.81 3.487 1.81 4.257a3.32 3.32 0 0 1-.413 1.75 3.411 3.411 0 0 1-1.271 1.295c-.536.312-1.463.462-1.759.462-.296 0-1.259-.175-1.793-.49v.073c-.142.556-.254 1.165-.449 1.757a22.865 22.865 0 0 1-1.417 3.447c-.58 1.085-1.155 1.72-1.84 1.687-.78-.038-1.412-1.02-2.197-3.797a55.493 55.493 0 0 1-.705-2.84c-.539-2.39-1.2-4.794-2.332-6.918a8.203 8.203 0 0 0-3.084-3.348A8.45 8.45 0 0 0 13.494 7.5c-2.334 0-4.077 1.08-5.447 2.442-.445.458-.85.953-1.207 1.479a3.195 3.195 0 0 1 1.735 1.004c.451.51.722 1.15.77 1.824a35.073 35.073 0 0 0 1.122 5.766 29.06 29.06 0 0 1 1.405-3.573 6.347 6.347 0 0 1 1.084-1.655 1.169 1.169 0 0 1 .807-.419c.26 0 1.15.233 2.016 3.206 1.074 3.685 1.874 9.55 4.919 12.664 1.343 1.374 3.223 2.263 5.827 2.263a7.823 7.823 0 0 0 3.022-.62 7.684 7.684 0 0 0 2.528-1.734c2.234-2.252 3.458-5.975 3.895-7.353a41.43 41.43 0 0 0 1.631-7.84c.231-2.144-1.615-3.635-3.455-3.635Z"/>
  <path fill="url(#q)" d="M34.146 11.32a4.08 4.08 0 0 0-.77.072c1.207 1.703 1.81 3.487 1.81 4.257a3.32 3.32 0 0 1-.413 1.75 3.411 3.411 0 0 1-1.271 1.295c-.536.312-1.463.462-1.759.462-.296 0-1.259-.175-1.793-.49v.073c-.142.556-.254 1.165-.449 1.757a22.865 22.865 0 0 1-1.417 3.447c-.58 1.085-1.155 1.72-1.84 1.687-.78-.038-1.412-1.02-2.197-3.797a55.493 55.493 0 0 1-.705-2.84c-.539-2.39-1.2-4.794-2.332-6.918a8.203 8.203 0 0 0-3.084-3.348A8.45 8.45 0 0 0 13.494 7.5c-2.334 0-4.077 1.08-5.447 2.442-.445.458-.85.953-1.207 1.479a3.195 3.195 0 0 1 1.735 1.004c.451.51.722 1.15.77 1.824a35.073 35.073 0 0 0 1.122 5.766 29.06 29.06 0 0 1 1.405-3.573 6.347 6.347 0 0 1 1.084-1.655 1.169 1.169 0 0 1 .807-.419c.26 0 1.15.233 2.016 3.206 1.074 3.685 1.874 9.55 4.919 12.664 1.343 1.374 3.223 2.263 5.827 2.263a7.823 7.823 0 0 0 3.022-.62 7.684 7.684 0 0 0 2.528-1.734c2.234-2.252 3.458-5.975 3.895-7.353a41.43 41.43 0 0 0 1.631-7.84c.231-2.144-1.615-3.635-3.455-3.635Z"/>
  <path fill="url(#r)" d="M34.146 11.32a4.08 4.08 0 0 0-.77.072c1.207 1.703 1.81 3.487 1.81 4.257a3.32 3.32 0 0 1-.413 1.75 3.411 3.411 0 0 1-1.271 1.295c-.536.312-1.463.462-1.759.462-.296 0-1.259-.175-1.793-.49v.073c-.142.556-.254 1.165-.449 1.757a22.865 22.865 0 0 1-1.417 3.447c-.58 1.085-1.155 1.72-1.84 1.687-.78-.038-1.412-1.02-2.197-3.797a55.493 55.493 0 0 1-.705-2.84c-.539-2.39-1.2-4.794-2.332-6.918a8.203 8.203 0 0 0-3.084-3.348A8.45 8.45 0 0 0 13.494 7.5c-2.334 0-4.077 1.08-5.447 2.442-.445.458-.85.953-1.207 1.479a3.195 3.195 0 0 1 1.735 1.004c.451.51.722 1.15.77 1.824a35.073 35.073 0 0 0 1.122 5.766 29.06 29.06 0 0 1 1.405-3.573 6.347 6.347 0 0 1 1.084-1.655 1.169 1.169 0 0 1 .807-.419c.26 0 1.15.233 2.016 3.206 1.074 3.685 1.874 9.55 4.919 12.664 1.343 1.374 3.223 2.263 5.827 2.263a7.823 7.823 0 0 0 3.022-.62 7.684 7.684 0 0 0 2.528-1.734c2.234-2.252 3.458-5.975 3.895-7.353a41.43 41.43 0 0 0 1.631-7.84c.231-2.144-1.615-3.635-3.455-3.635Z"/>
  <path fill="url(#s)" d="M34.146 11.32a4.08 4.08 0 0 0-.77.072c1.207 1.703 1.81 3.487 1.81 4.257a3.32 3.32 0 0 1-.413 1.75 3.411 3.411 0 0 1-1.271 1.295c-.536.312-1.463.462-1.759.462-.296 0-1.259-.175-1.793-.49v.073c-.142.556-.254 1.165-.449 1.757a22.865 22.865 0 0 1-1.417 3.447c-.58 1.085-1.155 1.72-1.84 1.687-.78-.038-1.412-1.02-2.197-3.797a55.493 55.493 0 0 1-.705-2.84c-.539-2.39-1.2-4.794-2.332-6.918a8.203 8.203 0 0 0-3.084-3.348A8.45 8.45 0 0 0 13.494 7.5c-2.334 0-4.077 1.08-5.447 2.442-.445.458-.85.953-1.207 1.479a3.195 3.195 0 0 1 1.735 1.004c.451.51.722 1.15.77 1.824a35.073 35.073 0 0 0 1.122 5.766 29.06 29.06 0 0 1 1.405-3.573 6.347 6.347 0 0 1 1.084-1.655 1.169 1.169 0 0 1 .807-.419c.26 0 1.15.233 2.016 3.206 1.074 3.685 1.874 9.55 4.919 12.664 1.343 1.374 3.223 2.263 5.827 2.263a7.823 7.823 0 0 0 3.022-.62 7.684 7.684 0 0 0 2.528-1.734c2.234-2.252 3.458-5.975 3.895-7.353a41.43 41.43 0 0 0 1.631-7.84c.231-2.144-1.615-3.635-3.455-3.635Z"/>
  <path fill="url(#t)" d="M34.146 11.32a4.08 4.08 0 0 0-.77.072c1.207 1.703 1.81 3.487 1.81 4.257a3.32 3.32 0 0 1-.413 1.75 3.411 3.411 0 0 1-1.271 1.295c-.536.312-1.463.462-1.759.462-.296 0-1.259-.175-1.793-.49v.073c-.142.556-.254 1.165-.449 1.757a22.865 22.865 0 0 1-1.417 3.447c-.58 1.085-1.155 1.72-1.84 1.687-.78-.038-1.412-1.02-2.197-3.797a55.493 55.493 0 0 1-.705-2.84c-.539-2.39-1.2-4.794-2.332-6.918a8.203 8.203 0 0 0-3.084-3.348A8.45 8.45 0 0 0 13.494 7.5c-2.334 0-4.077 1.08-5.447 2.442-.445.458-.85.953-1.207 1.479a3.195 3.195 0 0 1 1.735 1.004c.451.51.722 1.15.77 1.824a35.073 35.073 0 0 0 1.122 5.766 29.06 29.06 0 0 1 1.405-3.573 6.347 6.347 0 0 1 1.084-1.655 1.169 1.169 0 0 1 .807-.419c.26 0 1.15.233 2.016 3.206 1.074 3.685 1.874 9.55 4.919 12.664 1.343 1.374 3.223 2.263 5.827 2.263a7.823 7.823 0 0 0 3.022-.62 7.684 7.684 0 0 0 2.528-1.734c2.234-2.252 3.458-5.975 3.895-7.353a41.43 41.43 0 0 0 1.631-7.84c.231-2.144-1.615-3.635-3.455-3.635Z"/>
  <path fill="url(#u)" d="M34.146 11.32a4.08 4.08 0 0 0-.77.072c1.207 1.703 1.81 3.487 1.81 4.257a3.32 3.32 0 0 1-.413 1.75 3.411 3.411 0 0 1-1.271 1.295c-.536.312-1.463.462-1.759.462-.296 0-1.259-.175-1.793-.49v.073c-.142.556-.254 1.165-.449 1.757a22.865 22.865 0 0 1-1.417 3.447c-.58 1.085-1.155 1.72-1.84 1.687-.78-.038-1.412-1.02-2.197-3.797a55.493 55.493 0 0 1-.705-2.84c-.539-2.39-1.2-4.794-2.332-6.918a8.203 8.203 0 0 0-3.084-3.348A8.45 8.45 0 0 0 13.494 7.5c-2.334 0-4.077 1.08-5.447 2.442-.445.458-.85.953-1.207 1.479a3.195 3.195 0 0 1 1.735 1.004c.451.51.722 1.15.77 1.824a35.073 35.073 0 0 0 1.122 5.766 29.06 29.06 0 0 1 1.405-3.573 6.347 6.347 0 0 1 1.084-1.655 1.169 1.169 0 0 1 .807-.419c.26 0 1.15.233 2.016 3.206 1.074 3.685 1.874 9.55 4.919 12.664 1.343 1.374 3.223 2.263 5.827 2.263a7.823 7.823 0 0 0 3.022-.62 7.684 7.684 0 0 0 2.528-1.734c2.234-2.252 3.458-5.975 3.895-7.353a41.43 41.43 0 0 0 1.631-7.84c.231-2.144-1.615-3.635-3.455-3.635Z"/>
  <path fill="url(#v)" d="M34.146 11.32a4.08 4.08 0 0 0-.77.072c1.207 1.703 1.81 3.487 1.81 4.257a3.32 3.32 0 0 1-.413 1.75 3.411 3.411 0 0 1-1.271 1.295c-.536.312-1.463.462-1.759.462-.296 0-1.259-.175-1.793-.49v.073c-.142.556-.254 1.165-.449 1.757a22.865 22.865 0 0 1-1.417 3.447c-.58 1.085-1.155 1.72-1.84 1.687-.78-.038-1.412-1.02-2.197-3.797a55.493 55.493 0 0 1-.705-2.84c-.539-2.39-1.2-4.794-2.332-6.918a8.203 8.203 0 0 0-3.084-3.348A8.45 8.45 0 0 0 13.494 7.5c-2.334 0-4.077 1.08-5.447 2.442-.445.458-.85.953-1.207 1.479a3.195 3.195 0 0 1 1.735 1.004c.451.51.722 1.15.77 1.824a35.073 35.073 0 0 0 1.122 5.766 29.06 29.06 0 0 1 1.405-3.573 6.347 6.347 0 0 1 1.084-1.655 1.169 1.169 0 0 1 .807-.419c.26 0 1.15.233 2.016 3.206 1.074 3.685 1.874 9.55 4.919 12.664 1.343 1.374 3.223 2.263 5.827 2.263a7.823 7.823 0 0 0 3.022-.62 7.684 7.684 0 0 0 2.528-1.734c2.234-2.252 3.458-5.975 3.895-7.353a41.43 41.43 0 0 0 1.631-7.84c.231-2.144-1.615-3.635-3.455-3.635Z"/>
  <path fill="url(#w)" d="M34.146 11.32a4.08 4.08 0 0 0-.77.072c1.207 1.703 1.81 3.487 1.81 4.257a3.32 3.32 0 0 1-.413 1.75 3.411 3.411 0 0 1-1.271 1.295c-.536.312-1.463.462-1.759.462-.296 0-1.259-.175-1.793-.49v.073c-.142.556-.254 1.165-.449 1.757a22.865 22.865 0 0 1-1.417 3.447c-.58 1.085-1.155 1.72-1.84 1.687-.78-.038-1.412-1.02-2.197-3.797a55.493 55.493 0 0 1-.705-2.84c-.539-2.39-1.2-4.794-2.332-6.918a8.203 8.203 0 0 0-3.084-3.348A8.45 8.45 0 0 0 13.494 7.5c-2.334 0-4.077 1.08-5.447 2.442-.445.458-.85.953-1.207 1.479a3.195 3.195 0 0 1 1.735 1.004c.451.51.722 1.15.77 1.824a35.073 35.073 0 0 0 1.122 5.766 29.06 29.06 0 0 1 1.405-3.573 6.347 6.347 0 0 1 1.084-1.655 1.169 1.169 0 0 1 .807-.419c.26 0 1.15.233 2.016 3.206 1.074 3.685 1.874 9.55 4.919 12.664 1.343 1.374 3.223 2.263 5.827 2.263a7.823 7.823 0 0 0 3.022-.62 7.684 7.684 0 0 0 2.528-1.734c2.234-2.252 3.458-5.975 3.895-7.353a41.43 41.43 0 0 0 1.631-7.84c.231-2.144-1.615-3.635-3.455-3.635Z"/>
  <path fill="url(#x)" d="M34.146 11.32a4.08 4.08 0 0 0-.77.072c1.207 1.703 1.81 3.487 1.81 4.257a3.32 3.32 0 0 1-.413 1.75 3.411 3.411 0 0 1-1.271 1.295c-.536.312-1.463.462-1.759.462-.296 0-1.259-.175-1.793-.49v.073c-.142.556-.254 1.165-.449 1.757a22.865 22.865 0 0 1-1.417 3.447c-.58 1.085-1.155 1.72-1.84 1.687-.78-.038-1.412-1.02-2.197-3.797a55.493 55.493 0 0 1-.705-2.84c-.539-2.39-1.2-4.794-2.332-6.918a8.203 8.203 0 0 0-3.084-3.348A8.45 8.45 0 0 0 13.494 7.5c-2.334 0-4.077 1.08-5.447 2.442-.445.458-.85.953-1.207 1.479a3.195 3.195 0 0 1 1.735 1.004c.451.51.722 1.15.77 1.824a35.073 35.073 0 0 0 1.122 5.766 29.06 29.06 0 0 1 1.405-3.573 6.347 6.347 0 0 1 1.084-1.655 1.169 1.169 0 0 1 .807-.419c.26 0 1.15.233 2.016 3.206 1.074 3.685 1.874 9.55 4.919 12.664 1.343 1.374 3.223 2.263 5.827 2.263a7.823 7.823 0 0 0 3.022-.62 7.684 7.684 0 0 0 2.528-1.734c2.234-2.252 3.458-5.975 3.895-7.353a41.43 41.43 0 0 0 1.631-7.84c.231-2.144-1.615-3.635-3.455-3.635Z"/>
  <path fill="url(#y)" d="M34.146 11.32a4.08 4.08 0 0 0-.77.072c1.207 1.703 1.81 3.487 1.81 4.257a3.32 3.32 0 0 1-.413 1.75 3.411 3.411 0 0 1-1.271 1.295c-.536.312-1.463.462-1.759.462-.296 0-1.259-.175-1.793-.49v.073c-.142.556-.254 1.165-.449 1.757a22.865 22.865 0 0 1-1.417 3.447c-.58 1.085-1.155 1.72-1.84 1.687-.78-.038-1.412-1.02-2.197-3.797a55.493 55.493 0 0 1-.705-2.84c-.539-2.39-1.2-4.794-2.332-6.918a8.203 8.203 0 0 0-3.084-3.348A8.45 8.45 0 0 0 13.494 7.5c-2.334 0-4.077 1.08-5.447 2.442-.445.458-.85.953-1.207 1.479a3.195 3.195 0 0 1 1.735 1.004c.451.51.722 1.15.77 1.824a35.073 35.073 0 0 0 1.122 5.766 29.06 29.06 0 0 1 1.405-3.573 6.347 6.347 0 0 1 1.084-1.655 1.169 1.169 0 0 1 .807-.419c.26 0 1.15.233 2.016 3.206 1.074 3.685 1.874 9.55 4.919 12.664 1.343 1.374 3.223 2.263 5.827 2.263a7.823 7.823 0 0 0 3.022-.62 7.684 7.684 0 0 0 2.528-1.734c2.234-2.252 3.458-5.975 3.895-7.353a41.43 41.43 0 0 0 1.631-7.84c.231-2.144-1.615-3.635-3.455-3.635Z"/>
  <path fill="url(#z)" d="M34.146 11.32a4.08 4.08 0 0 0-.77.072c1.207 1.703 1.81 3.487 1.81 4.257a3.32 3.32 0 0 1-.413 1.75 3.411 3.411 0 0 1-1.271 1.295c-.536.312-1.463.462-1.759.462-.296 0-1.259-.175-1.793-.49v.073c-.142.556-.254 1.165-.449 1.757a22.865 22.865 0 0 1-1.417 3.447c-.58 1.085-1.155 1.72-1.84 1.687-.78-.038-1.412-1.02-2.197-3.797a55.493 55.493 0 0 1-.705-2.84c-.539-2.39-1.2-4.794-2.332-6.918a8.203 8.203 0 0 0-3.084-3.348A8.45 8.45 0 0 0 13.494 7.5c-2.334 0-4.077 1.08-5.447 2.442-.445.458-.85.953-1.207 1.479a3.195 3.195 0 0 1 1.735 1.004c.451.51.722 1.15.77 1.824a35.073 35.073 0 0 0 1.122 5.766 29.06 29.06 0 0 1 1.405-3.573 6.347 6.347 0 0 1 1.084-1.655 1.169 1.169 0 0 1 .807-.419c.26 0 1.15.233 2.016 3.206 1.074 3.685 1.874 9.55 4.919 12.664 1.343 1.374 3.223 2.263 5.827 2.263a7.823 7.823 0 0 0 3.022-.62 7.684 7.684 0 0 0 2.528-1.734c2.234-2.252 3.458-5.975 3.895-7.353a41.43 41.43 0 0 0 1.631-7.84c.231-2.144-1.615-3.635-3.455-3.635Z"/>
  <path fill="url(#A)" d="M34.146 11.32a4.08 4.08 0 0 0-.77.072c1.207 1.703 1.81 3.487 1.81 4.257a3.32 3.32 0 0 1-.413 1.75 3.411 3.411 0 0 1-1.271 1.295c-.536.312-1.463.462-1.759.462-.296 0-1.259-.175-1.793-.49v.073c-.142.556-.254 1.165-.449 1.757a22.865 22.865 0 0 1-1.417 3.447c-.58 1.085-1.155 1.72-1.84 1.687-.78-.038-1.412-1.02-2.197-3.797a55.493 55.493 0 0 1-.705-2.84c-.539-2.39-1.2-4.794-2.332-6.918a8.203 8.203 0 0 0-3.084-3.348A8.45 8.45 0 0 0 13.494 7.5c-2.334 0-4.077 1.08-5.447 2.442-.445.458-.85.953-1.207 1.479a3.195 3.195 0 0 1 1.735 1.004c.451.51.722 1.15.77 1.824a35.073 35.073 0 0 0 1.122 5.766 29.06 29.06 0 0 1 1.405-3.573 6.347 6.347 0 0 1 1.084-1.655 1.169 1.169 0 0 1 .807-.419c.26 0 1.15.233 2.016 3.206 1.074 3.685 1.874 9.55 4.919 12.664 1.343 1.374 3.223 2.263 5.827 2.263a7.823 7.823 0 0 0 3.022-.62 7.684 7.684 0 0 0 2.528-1.734c2.234-2.252 3.458-5.975 3.895-7.353a41.43 41.43 0 0 0 1.631-7.84c.231-2.144-1.615-3.635-3.455-3.635Z"/>
  <path fill="url(#B)" d="M34.146 11.32a4.08 4.08 0 0 0-.77.072c1.207 1.703 1.81 3.487 1.81 4.257a3.32 3.32 0 0 1-.413 1.75 3.411 3.411 0 0 1-1.271 1.295c-.536.312-1.463.462-1.759.462-.296 0-1.259-.175-1.793-.49v.073c-.142.556-.254 1.165-.449 1.757a22.865 22.865 0 0 1-1.417 3.447c-.58 1.085-1.155 1.72-1.84 1.687-.78-.038-1.412-1.02-2.197-3.797a55.493 55.493 0 0 1-.705-2.84c-.539-2.39-1.2-4.794-2.332-6.918a8.203 8.203 0 0 0-3.084-3.348A8.45 8.45 0 0 0 13.494 7.5c-2.334 0-4.077 1.08-5.447 2.442-.445.458-.85.953-1.207 1.479a3.195 3.195 0 0 1 1.735 1.004c.451.51.722 1.15.77 1.824a35.073 35.073 0 0 0 1.122 5.766 29.06 29.06 0 0 1 1.405-3.573 6.347 6.347 0 0 1 1.084-1.655 1.169 1.169 0 0 1 .807-.419c.26 0 1.15.233 2.016 3.206 1.074 3.685 1.874 9.55 4.919 12.664 1.343 1.374 3.223 2.263 5.827 2.263a7.823 7.823 0 0 0 3.022-.62 7.684 7.684 0 0 0 2.528-1.734c2.234-2.252 3.458-5.975 3.895-7.353a41.43 41.43 0 0 0 1.631-7.84c.231-2.144-1.615-3.635-3.455-3.635Z"/>
  <path fill="url(#C)" d="M13.397 32.402c-6.503 0-8.716-8.043-9.212-9.608a42.81 42.81 0 0 1-1.664-7.84c-.232-2.144 1.526-3.635 3.455-3.635a3.305 3.305 0 0 1 2.292.8 3.17 3.17 0 0 1 1.088 2.13c.245 2.25.71 4.473 1.387 6.638 1.096 3.422 2.26 4.738 3.097 4.738 1.352 0 2.177-3.397 2.907-6.632.537-2.383 1.118-4.785 2.265-6.918 1.995-3.711 5.01-4.575 7.616-4.575 5.712 0 8.57 6.473 8.57 8.15a3.26 3.26 0 0 1-.195 1.32 3.33 3.33 0 0 1-.71 1.14 3.394 3.394 0 0 1-1.112.773c-.42.182-.873.278-1.332.284-2.216 0-2.967-1.452-3.599-2.725-.569-1.145-1.163-2.097-1.93-2.097a1.014 1.014 0 0 0-.703.34C23.71 16.582 23.07 26.506 19.253 30.3c-2.115 2.103-4.417 2.103-5.856 2.103Z"/>
  <path fill="url(#D)" d="M13.397 32.402c-6.503 0-8.716-8.043-9.212-9.608a42.81 42.81 0 0 1-1.664-7.84c-.232-2.144 1.526-3.635 3.455-3.635a3.305 3.305 0 0 1 2.292.8 3.17 3.17 0 0 1 1.088 2.13c.245 2.25.71 4.473 1.387 6.638 1.096 3.422 2.26 4.738 3.097 4.738 1.352 0 2.177-3.397 2.907-6.632.537-2.383 1.118-4.785 2.265-6.918 1.995-3.711 5.01-4.575 7.616-4.575 5.712 0 8.57 6.473 8.57 8.15a3.26 3.26 0 0 1-.195 1.32 3.33 3.33 0 0 1-.71 1.14 3.394 3.394 0 0 1-1.112.773c-.42.182-.873.278-1.332.284-2.216 0-2.967-1.452-3.599-2.725-.569-1.145-1.163-2.097-1.93-2.097a1.014 1.014 0 0 0-.703.34C23.71 16.582 23.07 26.506 19.253 30.3c-2.115 2.103-4.417 2.103-5.856 2.103Z"/>
  <path fill="url(#E)" d="M13.397 32.402c-6.503 0-8.716-8.043-9.212-9.608a42.81 42.81 0 0 1-1.664-7.84c-.232-2.144 1.526-3.635 3.455-3.635a3.305 3.305 0 0 1 2.292.8 3.17 3.17 0 0 1 1.088 2.13c.245 2.25.71 4.473 1.387 6.638 1.096 3.422 2.26 4.738 3.097 4.738 1.352 0 2.177-3.397 2.907-6.632.537-2.383 1.118-4.785 2.265-6.918 1.995-3.711 5.01-4.575 7.616-4.575 5.712 0 8.57 6.473 8.57 8.15a3.26 3.26 0 0 1-.195 1.32 3.33 3.33 0 0 1-.71 1.14 3.394 3.394 0 0 1-1.112.773c-.42.182-.873.278-1.332.284-2.216 0-2.967-1.452-3.599-2.725-.569-1.145-1.163-2.097-1.93-2.097a1.014 1.014 0 0 0-.703.34C23.71 16.582 23.07 26.506 19.253 30.3c-2.115 2.103-4.417 2.103-5.856 2.103Z"/>
  <path fill="url(#F)" d="M13.397 32.402c-6.503 0-8.716-8.043-9.212-9.608a42.81 42.81 0 0 1-1.664-7.84c-.232-2.144 1.526-3.635 3.455-3.635a3.305 3.305 0 0 1 2.292.8 3.17 3.17 0 0 1 1.088 2.13c.245 2.25.71 4.473 1.387 6.638 1.096 3.422 2.26 4.738 3.097 4.738 1.352 0 2.177-3.397 2.907-6.632.537-2.383 1.118-4.785 2.265-6.918 1.995-3.711 5.01-4.575 7.616-4.575 5.712 0 8.57 6.473 8.57 8.15a3.26 3.26 0 0 1-.195 1.32 3.33 3.33 0 0 1-.71 1.14 3.394 3.394 0 0 1-1.112.773c-.42.182-.873.278-1.332.284-2.216 0-2.967-1.452-3.599-2.725-.569-1.145-1.163-2.097-1.93-2.097a1.014 1.014 0 0 0-.703.34C23.71 16.582 23.07 26.506 19.253 30.3c-2.115 2.103-4.417 2.103-5.856 2.103Z"/>
  <defs>
    <radialGradient id="b" cx="0" cy="0" r="1" gradientTransform="rotate(-121 13.761 5.94) scale(14.81 12.56)" gradientUnits="userSpaceOnUse">
      <stop stop-color="#B7B7B7"/>
      <stop offset=".408" stop-color="#B5B5B5" stop-opacity=".75"/>
      <stop offset=".875" stop-color="#B6B6B6" stop-opacity="0"/>
    </radialGradient>
    <radialGradient id="c" cx="0" cy="0" r="1" gradientTransform="matrix(-7.34 -9.62 6.36 -4.85 25.758 18.042)" gradientUnits="userSpaceOnUse">
      <stop stop-color="#CACACA"/>
      <stop offset=".46" stop-color="#C7C7C7"/>
      <stop offset="1" stop-color="#ACACAC" stop-opacity="0"/>
    </radialGradient>
    <radialGradient id="d" cx="0" cy="0" r="1" gradientTransform="rotate(-108 15.33 5.27) scale(9.8 5.19)" gradientUnits="userSpaceOnUse">
      <stop stop-color="#CDCDCD"/>
      <stop offset=".408" stop-color="#C8C8C8" stop-opacity=".79"/>
      <stop offset=".875" stop-color="#B6B6B6" stop-opacity="0"/>
    </radialGradient>
    <radialGradient id="e" cx="0" cy="0" r="1" gradientTransform="rotate(-115 16.277 6.299) scale(26.06 8.15)" gradientUnits="userSpaceOnUse">
      <stop stop-color="#A2A2A2" stop-opacity=".78"/>
      <stop offset="1" stop-color="#A2A2A2" stop-opacity="0"/>
    </radialGradient>
    <radialGradient id="f" cx="0" cy="0" r="1" gradientTransform="matrix(2.14 12.12 -7.02 1.24 22.654 15.508)" gradientUnits="userSpaceOnUse">
      <stop stop-color="#AEAEAE"/>
      <stop offset=".233" stop-color="#AEAEAE" stop-opacity=".75"/>
      <stop offset=".599" stop-color="#AEAEAE" stop-opacity=".301"/>
      <stop offset=".875" stop-color="#AEAEAE" stop-opacity="0"/>
    </radialGradient>
    <radialGradient id="g" cx="0" cy="0" r="1" gradientTransform="matrix(6.1 9.23 -4.88 3.23 24.393 3.196)" gradientUnits="userSpaceOnUse">
      <stop stop-color="#E1E1E1"/>
      <stop offset=".408" stop-color="#E7E7E7"/>
      <stop offset="1" stop-color="#E7E7E7" stop-opacity=".07"/>
    </radialGradient>
    <radialGradient id="i" cx="0" cy="0" r="1" gradientTransform="rotate(47 6.646 9.474) scale(29.41 29.43)" gradientUnits="userSpaceOnUse">
      <stop stop-color="#F5F5F5"/>
      <stop offset=".745" stop-color="#F4F4F4" stop-opacity="0"/>
    </radialGradient>
    <radialGradient id="j" cx="0" cy="0" r="1" gradientTransform="matrix(-4.3 -13.39 9.45 -3.04 10.684 20)" gradientUnits="userSpaceOnUse">
      <stop stop-color="#F5F5F5" stop-opacity=".76"/>
      <stop offset=".573" stop-color="#F4F4F4" stop-opacity="0"/>
    </radialGradient>
    <radialGradient id="k" cx="0" cy="0" r="1" gradientTransform="matrix(-6.44 -7.68 5.4 -4.53 32.465 14.714)" gradientUnits="userSpaceOnUse">
      <stop stop-color="#fff"/>
      <stop offset="1" stop-color="#F4F4F4" stop-opacity="0"/>
    </radialGradient>
    <radialGradient id="l" cx="0" cy="0" r="1" gradientTransform="matrix(.58 -2.95 2.08 .41 31.054 21.067)" gradientUnits="userSpaceOnUse">
      <stop stop-color="#CDCDCD"/>
      <stop offset="1" stop-color="#BCBCBC" stop-opacity="0"/>
    </radialGradient>
    <radialGradient id="m" cx="0" cy="0" r="1" gradientTransform="matrix(43.58 -198.45 220.15 48.34 -63404.1 20470.4)" gradientUnits="userSpaceOnUse">
      <stop stop-color="#CDCDCD"/>
      <stop offset="1" stop-color="#BCBCBC" stop-opacity="0"/>
    </radialGradient>
    <radialGradient id="n" cx="0" cy="0" r="1" gradientTransform="matrix(-5.7 -6.03 4.24 -4.02 33.919 16.388)" gradientUnits="userSpaceOnUse">
      <stop stop-color="#fff"/>
      <stop offset=".813" stop-color="#fff" stop-opacity="0"/>
    </radialGradient>
    <radialGradient id="p" cx="0" cy="0" r="1" gradientTransform="matrix(5.93 4.44 -6.14 8.2 31.295 18.736)" gradientUnits="userSpaceOnUse">
      <stop stop-color="#D2D2D2"/>
      <stop offset=".966" stop-color="#D2D2D2" stop-opacity="0"/>
    </radialGradient>
    <radialGradient id="q" cx="0" cy="0" r="1" gradientTransform="matrix(8.72 1.27 -1.86 12.74 29.436 19.568)" gradientUnits="userSpaceOnUse">
      <stop stop-color="#D2D2D2"/>
      <stop offset=".593" stop-color="#D2D2D2" stop-opacity="0"/>
    </radialGradient>
    <radialGradient id="r" cx="0" cy="0" r="1" gradientTransform="matrix(6.84 3.07 -5.4 12.02 30.15 20.639)" gradientUnits="userSpaceOnUse">
      <stop stop-color="#D2D2D2"/>
      <stop offset=".757" stop-color="#D2D2D2" stop-opacity="0"/>
    </radialGradient>
    <radialGradient id="s" cx="0" cy="0" r="1" gradientTransform="matrix(12.37 -12.5 10.05 9.95 29.84 18.047)" gradientUnits="userSpaceOnUse">
      <stop offset=".065" stop-color="#4F4F4F"/>
      <stop offset=".519" stop-color="#D5D5D5" stop-opacity="0"/>
    </radialGradient>
    <radialGradient id="t" cx="0" cy="0" r="1" gradientTransform="matrix(-1.37 13.17 -7.38 -.77 29.27 21.071)" gradientUnits="userSpaceOnUse">
      <stop stop-color="#D2D2D2"/>
      <stop offset=".593" stop-color="#D2D2D2" stop-opacity="0"/>
      <stop offset="1" stop-color="#D2D2D2" stop-opacity="0"/>
    </radialGradient>
    <radialGradient id="u" cx="0" cy="0" r="1" gradientTransform="matrix(-1.11 15.9 -5.8 -.4 31.315 15.336)" gradientUnits="userSpaceOnUse">
      <stop stop-color="#D2D2D2"/>
      <stop offset=".885" stop-color="#D2D2D2" stop-opacity="0"/>
    </radialGradient>
    <radialGradient id="v" cx="0" cy="0" r="1" gradientTransform="matrix(5.3 -13.12 5.3 2.14 6.397 21.842)" gradientUnits="userSpaceOnUse">
      <stop stop-color="#B3B3B3"/>
      <stop offset="1" stop-color="#B0B0B0" stop-opacity="0"/>
    </radialGradient>
    <radialGradient id="w" cx="0" cy="0" r="1" gradientTransform="matrix(8.65 -3.46 6.65 16.65 15.472 26.641)" gradientUnits="userSpaceOnUse">
      <stop stop-color="#F7F7F7"/>
      <stop offset=".709" stop-color="#F9F9F9" stop-opacity="0"/>
    </radialGradient>
    <radialGradient id="x" cx="0" cy="0" r="1" gradientTransform="matrix(8.65 -3.46 6.65 16.65 15.472 26.641)" gradientUnits="userSpaceOnUse">
      <stop stop-color="#F7F7F7"/>
      <stop offset=".709" stop-color="#F9F9F9" stop-opacity="0"/>
    </radialGradient>
    <radialGradient id="y" cx="0" cy="0" r="1" gradientTransform="matrix(10.98 4.88 -4.86 10.92 9.086 15.899)" gradientUnits="userSpaceOnUse">
      <stop stop-color="#ADADAD"/>
      <stop offset=".761" stop-color="#D2D2D2" stop-opacity="0"/>
    </radialGradient>
    <radialGradient id="z" cx="0" cy="0" r="1" gradientTransform="matrix(4.59 -.2 .28 6.52 12.479 14.922)" gradientUnits="userSpaceOnUse">
      <stop stop-color="#ADADAD"/>
      <stop offset=".761" stop-color="#D2D2D2" stop-opacity="0"/>
    </radialGradient>
    <radialGradient id="A" cx="0" cy="0" r="1" gradientTransform="matrix(4.19 -1.17 2.42 8.64 13.875 19.22)" gradientUnits="userSpaceOnUse">
      <stop stop-color="#B1B1B1"/>
      <stop offset="1" stop-color="#D2D2D2" stop-opacity="0"/>
    </radialGradient>
    <radialGradient id="B" cx="0" cy="0" r="1" gradientTransform="rotate(-51 20.821 -.227) scale(7.29 6.88)" gradientUnits="userSpaceOnUse">
      <stop stop-color="#807F7F"/>
      <stop offset="1" stop-color="#D2D2D2" stop-opacity="0"/>
    </radialGradient>
    <radialGradient id="F" cx="0" cy="0" r="1" gradientTransform="rotate(176 4.384 8.101) scale(6 17.75)" gradientUnits="userSpaceOnUse">
      <stop stop-color="#D1D1D1"/>
      <stop offset=".58" stop-color="#D1D1D1" stop-opacity="0"/>
    </radialGradient>
    <linearGradient id="a" x1="31.704" x2="8.833" y1="14.997" y2="22.667" gradientUnits="userSpaceOnUse">
      <stop stop-color="#fff"/>
      <stop offset="1" stop-color="#F5F5F5"/>
    </linearGradient>
    <linearGradient id="h" x1="-6.141" x2="10.139" y1="19.74" y2="19.877" gradientUnits="userSpaceOnUse">
      <stop stop-color="#FAFAFA"/>
      <stop offset="1" stop-color="#F8F8F8" stop-opacity="0"/>
    </linearGradient>
    <linearGradient id="o" x1="16.269" x2="12.042" y1="39.728" y2="27.755" gradientUnits="userSpaceOnUse">
      <stop offset=".229" stop-color="#fff"/>
      <stop offset="1" stop-color="#fff" stop-opacity="0"/>
    </linearGradient>
    <linearGradient id="C" x1="3.118" x2="15.484" y1="9.383" y2="17.453" gradientUnits="userSpaceOnUse">
      <stop offset=".229" stop-color="#fff"/>
      <stop offset="1" stop-color="#fff" stop-opacity="0"/>
    </linearGradient>
    <linearGradient id="D" x1="5.892" x2="11.678" y1="39.337" y2="27.713" gradientUnits="userSpaceOnUse">
      <stop offset=".229" stop-color="#fff"/>
      <stop offset="1" stop-color="#fff" stop-opacity="0"/>
    </linearGradient>
    <linearGradient id="E" x1="6.355" x2="9.798" y1="7.798" y2="10.99" gradientUnits="userSpaceOnUse">
      <stop stop-color="#fff"/>
      <stop offset=".637" stop-color="#F8F8F8" stop-opacity="0"/>
    </linearGradient>
  </defs>
</svg>

