<svg width="56" height="56" viewBox="0 0 56 56" fill="none" xmlns="http://www.w3.org/2000/svg">
<circle r="28" transform="matrix(-4.37114e-08 1 1 4.37114e-08 28 28)" fill="white"/>
<path d="M40.1338 31.2302L24.1133 40.2331C23.7322 40.4237 23.3087 40.5138 22.883 40.4947C22.4573 40.4756 22.0436 40.348 21.6811 40.124C21.3186 39.9001 21.0194 39.5872 20.8118 39.215C20.6042 38.8429 20.4952 38.4239 20.4951 37.9978L20.4951 20.0017C20.4953 19.34 20.7577 18.7053 21.2249 18.2367C21.6922 17.7681 22.3261 17.5038 22.9878 17.5017C23.3864 17.5029 23.7791 17.5972 24.1348 17.7771L40.1221 26.7634C40.5363 26.9707 40.8849 27.2889 41.1289 27.6826C41.3728 28.0763 41.5027 28.53 41.5039 28.9932C41.5051 29.4564 41.3777 29.9108 41.1357 30.3058C40.8938 30.7008 40.5469 31.0208 40.1338 31.2302Z" fill="black"/>
</svg>
