<svg width="1440" height="848" viewBox="0 0 1440 848" fill="none" xmlns="http://www.w3.org/2000/svg">
<g clip-path="url(#clip0_954_2572)">
<path d="M396.662 821.3C404.765 807.264 422.712 802.455 436.748 810.559C450.784 818.662 455.592 836.609 447.489 850.645C439.386 864.68 421.438 869.489 407.403 861.386C393.367 853.283 388.558 835.335 396.662 821.3Z" fill="url(#paint0_linear_954_2572)"/>
<path d="M404.412 802.938C416.306 782.338 442.648 775.28 463.248 787.173C483.849 799.067 490.907 825.409 479.013 846.01C467.12 866.61 440.778 873.669 420.177 861.775C399.576 849.881 392.518 823.539 404.412 802.938Z" fill="url(#paint1_linear_954_2572)"/>
<path d="M414.626 778.664C430.833 750.592 466.728 740.975 494.799 757.181C522.87 773.388 532.488 809.283 516.281 837.354C500.074 865.425 464.18 875.043 436.109 858.836C408.037 842.629 398.419 806.735 414.626 778.664Z" fill="url(#paint2_linear_954_2572)"/>
<path d="M432.897 747.018C453.94 710.571 500.545 698.083 536.992 719.126C573.44 740.169 585.927 786.774 564.884 823.221C543.842 859.668 497.237 872.156 460.789 851.113C424.342 830.07 411.854 783.465 432.897 747.018Z" fill="url(#paint3_linear_954_2572)"/>
<path d="M457.843 703.809C485.29 656.269 546.079 639.981 593.619 667.428C641.159 694.875 657.448 755.664 630.001 803.204C602.553 850.744 541.764 867.033 494.224 839.586C446.684 812.138 430.396 751.349 457.843 703.809Z" fill="url(#paint4_linear_954_2572)"/>
<path d="M494.337 640.601C530.411 578.12 610.305 556.713 672.786 592.786C735.267 628.86 756.675 708.754 720.601 771.235C684.528 833.716 604.633 855.124 542.152 819.05C479.671 782.977 458.264 703.083 494.337 640.601Z" fill="url(#paint5_linear_954_2572)"/>
<path d="M548.058 547.553C596.809 463.113 704.782 434.182 789.222 482.933C873.662 531.685 902.594 639.658 853.842 724.098C805.091 808.538 697.118 837.469 612.678 788.718C528.237 739.966 499.306 631.993 548.058 547.553Z" fill="url(#paint6_linear_954_2572)"/>
<path d="M620.947 421.305C685.644 309.247 828.933 270.853 940.992 335.55C1053.05 400.247 1091.44 543.536 1026.75 655.594C962.05 767.653 818.762 806.047 706.703 741.35C594.644 676.653 556.25 533.364 620.947 421.305Z" fill="url(#paint7_linear_954_2572)"/>
<path d="M715.609 257.346C801.741 108.161 992.504 57.0463 1141.69 143.178C1290.87 229.31 1341.99 420.072 1255.86 569.257C1169.72 718.442 978.962 769.557 829.777 683.425C680.592 597.293 629.477 406.531 715.609 257.346Z" fill="url(#paint8_linear_954_2572)"/>
<path d="M819.786 76.9052C929.445 -113.028 1172.31 -178.104 1362.25 -68.4462C1552.18 41.212 1617.25 284.079 1507.6 474.013C1397.94 663.946 1155.07 729.022 965.138 619.364C775.204 509.706 710.128 266.839 819.786 76.9052Z" fill="url(#paint9_linear_954_2572)"/>
</g>
<defs>
<linearGradient id="paint0_linear_954_2572" x1="434.525" y1="805.517" x2="397.124" y2="875.448" gradientUnits="userSpaceOnUse">
<stop stop-color="#DA3232"/>
<stop offset="0.0001" stop-color="#E54444"/>
<stop offset="1" stop-color="#121212"/>
</linearGradient>
<linearGradient id="paint1_linear_954_2572" x1="459.985" y1="779.773" x2="405.091" y2="882.414" gradientUnits="userSpaceOnUse">
<stop stop-color="#DA3232"/>
<stop offset="0.0001" stop-color="#E54444"/>
<stop offset="1" stop-color="#121212"/>
</linearGradient>
<linearGradient id="paint2_linear_954_2572" x1="490.353" y1="747.098" x2="415.551" y2="886.96" gradientUnits="userSpaceOnUse">
<stop stop-color="#DA3232"/>
<stop offset="0.0001" stop-color="#E54444"/>
<stop offset="1" stop-color="#121212"/>
</linearGradient>
<linearGradient id="paint3_linear_954_2572" x1="531.219" y1="706.033" x2="434.098" y2="887.628" gradientUnits="userSpaceOnUse">
<stop stop-color="#DA3232"/>
<stop offset="0.0001" stop-color="#E54444"/>
<stop offset="1" stop-color="#121212"/>
</linearGradient>
<linearGradient id="paint4_linear_954_2572" x1="586.089" y1="650.351" x2="459.409" y2="887.214" gradientUnits="userSpaceOnUse">
<stop stop-color="#DA3232"/>
<stop offset="0.0001" stop-color="#E54444"/>
<stop offset="1" stop-color="#121212"/>
</linearGradient>
<linearGradient id="paint5_linear_954_2572" x1="662.889" y1="570.342" x2="496.396" y2="881.647" gradientUnits="userSpaceOnUse">
<stop stop-color="#DA3232"/>
<stop offset="0.0001" stop-color="#E54444"/>
<stop offset="1" stop-color="#121212"/>
</linearGradient>
<linearGradient id="paint6_linear_954_2572" x1="775.847" y1="452.601" x2="550.84" y2="873.314" gradientUnits="userSpaceOnUse">
<stop stop-color="#DA3232"/>
<stop offset="0.0001" stop-color="#E54444"/>
<stop offset="1" stop-color="#121212"/>
</linearGradient>
<linearGradient id="paint7_linear_954_2572" x1="923.242" y1="295.297" x2="624.64" y2="853.616" gradientUnits="userSpaceOnUse">
<stop stop-color="#DA3232"/>
<stop offset="0.0001" stop-color="#E54444"/>
<stop offset="1" stop-color="#121212"/>
</linearGradient>
<linearGradient id="paint8_linear_954_2572" x1="1118.06" y1="89.5888" x2="720.525" y2="832.886" gradientUnits="userSpaceOnUse">
<stop stop-color="#DA3232"/>
<stop offset="0.0001" stop-color="#E54444"/>
<stop offset="1" stop-color="#121212"/>
</linearGradient>
<linearGradient id="paint9_linear_954_2572" x1="1332.16" y1="-136.673" x2="826.045" y2="809.649" gradientUnits="userSpaceOnUse">
<stop stop-color="#DA3232"/>
<stop offset="0.0001" stop-color="#E54444"/>
<stop offset="1" stop-color="#121212"/>
</linearGradient>
<clipPath id="clip0_954_2572">
<rect width="1440" height="848" fill="white"/>
</clipPath>
</defs>
</svg>
