<svg width="1440" height="848" viewBox="0 0 1440 848" fill="none" xmlns="http://www.w3.org/2000/svg">
<rect x="806.458" y="244" width="339.533" height="120.013" rx="60.0063" fill="url(#paint0_linear_954_2275)"/>
<path d="M1085.98 244C1052.84 244 1025.98 270.866 1025.98 304.006C1025.98 337.147 1052.84 364.013 1085.98 364.013C1119.12 364.013 1145.99 337.147 1145.99 304.006C1145.99 270.866 1119.12 244 1085.98 244Z" fill="url(#paint1_linear_954_2275)"/>
<rect x="678" y="483.421" width="339.533" height="120.013" rx="60.0063" fill="url(#paint2_linear_954_2275)"/>
<path d="M957.525 483.423C924.385 483.423 897.519 510.288 897.519 543.429C897.519 576.569 924.385 603.435 957.525 603.435C990.666 603.435 1017.53 576.569 1017.53 543.429C1017.53 510.288 990.666 483.423 957.525 483.423Z" fill="url(#paint3_linear_954_2275)"/>
<rect x="945.165" y="364.013" width="339.533" height="120.013" rx="60.0063" fill="url(#paint4_linear_954_2275)"/>
<path d="M1224.69 484.026C1257.83 484.026 1284.7 457.295 1284.7 424.321C1284.7 391.347 1257.83 364.616 1224.69 364.616C1191.55 364.616 1164.69 391.347 1164.69 424.321C1164.69 457.295 1191.55 484.026 1224.69 484.026Z" fill="url(#paint5_linear_954_2275)"/>
<defs>
<linearGradient id="paint0_linear_954_2275" x1="1115.54" y1="364.013" x2="791.079" y2="364.013" gradientUnits="userSpaceOnUse">
<stop stop-color="#888888"/>
<stop offset="1" stop-opacity="0"/>
</linearGradient>
<linearGradient id="paint1_linear_954_2275" x1="1173.13" y1="292.548" x2="1009.69" y2="292.548" gradientUnits="userSpaceOnUse">
<stop stop-color="#0F0F0F"/>
<stop offset="1" stop-color="#9A9A9A"/>
</linearGradient>
<linearGradient id="paint2_linear_954_2275" x1="987.077" y1="603.434" x2="662.622" y2="603.434" gradientUnits="userSpaceOnUse">
<stop stop-color="#6E6E6E"/>
<stop offset="1" stop-opacity="0"/>
</linearGradient>
<linearGradient id="paint3_linear_954_2275" x1="1044.67" y1="531.97" x2="881.236" y2="531.97" gradientUnits="userSpaceOnUse">
<stop stop-color="#0F0F0F"/>
<stop offset="1" stop-color="#5B5B5B"/>
</linearGradient>
<linearGradient id="paint4_linear_954_2275" x1="1367.41" y1="484.026" x2="980.186" y2="484.026" gradientUnits="userSpaceOnUse">
<stop offset="0.249941" stop-color="#84C663"/>
<stop offset="1" stop-color="#5FBFB0" stop-opacity="0"/>
</linearGradient>
<linearGradient id="paint5_linear_954_2275" x1="1291.35" y1="433.367" x2="1129.28" y2="428.074" gradientUnits="userSpaceOnUse">
<stop stop-color="#84C663"/>
<stop offset="1" stop-color="#54BDC6"/>
</linearGradient>
</defs>
</svg>
