<svg width="860" height="750" viewBox="0 0 860 750" fill="none" xmlns="http://www.w3.org/2000/svg">
  <g clip-path="url(#a)">
    <g clip-path="url(#b)">
      <path fill="url(#c)" d="M102.242 630.503c4.615-8 14.843-10.74 22.843-6.125 8 4.616 10.741 14.844 6.125 22.844-4.616 8-14.843 10.74-22.844 6.125-8-4.616-10.74-14.843-6.124-22.844Z"/>
      <path fill="url(#d)" d="M106.667 620.041c6.784-11.737 21.788-15.766 33.54-8.982 11.736 6.784 15.766 21.788 8.982 33.54-6.784 11.737-21.789 15.766-33.54 8.982-11.737-6.784-15.766-21.789-8.982-33.54Z"/>
      <path fill="url(#e)" d="M112.484 606.194c9.231-16.001 29.701-21.481 45.701-12.25 16.001 9.231 21.481 29.701 12.25 45.702-9.231 16.001-29.701 21.481-45.702 12.249-16-9.231-21.48-29.7-12.249-45.701Z"/>
      <path fill="url(#f)" d="M122.903 588.158c12-20.778 38.551-27.899 59.328-15.898 20.778 12 27.899 38.551 15.898 59.328-12 20.778-38.551 27.899-59.328 15.898-20.778-12-27.899-38.565-15.898-59.328Z"/>
      <path fill="url(#g)" d="M137.115 563.54c15.649-27.093 50.288-36.382 77.395-20.733 27.093 15.649 36.383 50.287 20.734 77.395-15.649 27.093-50.288 36.382-77.395 20.733-27.093-15.649-36.383-50.288-20.734-77.395Z"/>
      <path fill="url(#h)" d="M157.922 527.51c20.557-35.621 66.098-47.812 101.718-27.254 35.606 20.557 47.812 66.098 27.254 101.718-20.557 35.621-66.098 47.812-101.718 27.254-35.621-20.557-47.812-66.098-27.254-101.718Z"/>
      <path fill="url(#i)" d="M188.532 474.469c27.781-48.134 89.337-64.618 137.456-36.837 48.134 27.782 64.618 89.337 36.837 137.457-27.782 48.134-89.337 64.618-137.457 36.836-48.134-27.781-64.618-89.337-36.836-137.456Z"/>
      <path fill="url(#j)" d="M230.086 402.507c36.881-63.871 118.555-85.762 182.426-48.881 63.871 36.88 85.762 118.554 48.881 182.425-36.881 63.871-118.555 85.762-182.426 48.881-63.871-36.88-85.762-118.554-48.881-182.425Z"/>
      <path fill="url(#k)" d="M284.038 309.052c49.101-85.029 157.824-114.173 242.853-65.072 85.029 49.086 114.173 157.824 65.072 242.853-49.086 85.029-157.823 114.173-242.853 65.072-85.029-49.086-114.173-157.823-65.072-242.853Z"/>
      <path fill="url(#l)" d="M343.424 206.206C405.918 97.952 544.356 60.852 652.61 123.36c108.254 62.508 145.354 200.932 82.846 309.185C672.948 540.799 534.524 577.9 426.27 515.391c-108.253-62.508-145.354-200.931-82.846-309.185Z"/>
    </g>
  </g>
  <defs>
    <linearGradient id="c" x1="117.596" x2="111.849" y1="635.171" y2="659.544" gradientUnits="userSpaceOnUse">
      <stop stop-color="#DA3232"/>
      <stop offset="1" stop-color="#181818"/>
    </linearGradient>
    <linearGradient id="d" x1="129.205" x2="120.768" y1="626.901" y2="662.683" gradientUnits="userSpaceOnUse">
      <stop stop-color="#DA3232"/>
      <stop offset="1" stop-color="#181818"/>
    </linearGradient>
    <linearGradient id="e" x1="143.2" x2="131.704" y1="615.536" y2="664.292" gradientUnits="userSpaceOnUse">
      <stop stop-color="#DA3232"/>
      <stop offset="1" stop-color="#181818"/>
    </linearGradient>
    <linearGradient id="f" x1="162.775" x2="147.85" y1="600.286" y2="663.59" gradientUnits="userSpaceOnUse">
      <stop stop-color="#DA3232"/>
      <stop offset="1" stop-color="#181818"/>
    </linearGradient>
    <linearGradient id="g" x1="189.127" x2="169.658" y1="579.366" y2="661.938" gradientUnits="userSpaceOnUse">
      <stop stop-color="#DA3232"/>
      <stop offset="1" stop-color="#181818"/>
    </linearGradient>
    <linearGradient id="h" x1="226.279" x2="200.692" y1="548.307" y2="656.829" gradientUnits="userSpaceOnUse">
      <stop stop-color="#DA3232"/>
      <stop offset="1" stop-color="#181818"/>
    </linearGradient>
    <linearGradient id="i" x1="280.912" x2="246.335" y1="502.569" y2="649.222" gradientUnits="userSpaceOnUse">
      <stop stop-color="#DA3232"/>
      <stop offset="1" stop-color="#181818"/>
    </linearGradient>
    <linearGradient id="j" x1="352.686" x2="306.797" y1="439.803" y2="634.435" gradientUnits="userSpaceOnUse">
      <stop stop-color="#DA3232"/>
      <stop offset="1" stop-color="#181818"/>
    </linearGradient>
    <linearGradient id="k" x1="447.248" x2="386.158" y1="358.702" y2="617.808" gradientUnits="userSpaceOnUse">
      <stop stop-color="#DA3232"/>
      <stop offset="1" stop-color="#181818"/>
    </linearGradient>
    <linearGradient id="l" x1="551.213" x2="473.437" y1="269.417" y2="599.293" gradientUnits="userSpaceOnUse">
      <stop stop-color="#DA3232"/>
      <stop offset="1" stop-color="#181818"/>
    </linearGradient>
    <clipPath id="a">
      <path fill="#fff" d="M0 0h860v750H0z"/>
    </clipPath>
    <clipPath id="b">
      <path fill="#fff" d="M100 93h665.816v563.863H100z"/>
    </clipPath>
  </defs>
</svg>
