<svg width="1440" height="848" viewBox="0 0 1440 848" fill="none" xmlns="http://www.w3.org/2000/svg">
<g clip-path="url(#clip0_954_2311)">
<path d="M775.434 622.13C727.029 594.219 665.118 610.808 637.154 659.182L600.142 521.053C628.107 472.679 690.017 456.09 738.423 484.001L775.434 622.13Z" fill="url(#paint0_linear_954_2311)"/>
<path d="M842.796 541.696C815.579 557.386 780.842 549.082 763.704 522.786L738.426 484L775.438 622.129L800.715 660.915C817.854 687.211 852.591 695.515 879.807 679.825L842.796 541.696Z" fill="url(#paint1_linear_954_2311)"/>
<path d="M842.802 541.704L879.814 679.833L1030.59 423.313L993.582 285.184L842.802 541.704Z" fill="url(#paint2_linear_954_2311)"/>
<path d="M1168.8 385.289L1454.1 -91.8962L1407.07 -239.103L1132.16 248.537L1168.8 385.289Z" fill="url(#paint3_linear_954_2311)" fill-opacity="0.6"/>
<path d="M1168.79 386.644C1120.39 358.733 1058.48 375.322 1030.51 423.696L993.501 285.567C1021.47 237.193 1083.38 220.604 1131.78 248.515L1168.79 386.644Z" fill="url(#paint4_linear_954_2311)"/>
<path d="M637.153 659.148L520.157 883.106L483.516 746.358L600.135 521.047L637.153 659.148Z" fill="url(#paint5_linear_954_2311)" fill-opacity="0.6"/>
</g>
<defs>
<linearGradient id="paint0_linear_954_2311" x1="764.248" y1="548.432" x2="201.474" y2="678.722" gradientUnits="userSpaceOnUse">
<stop stop-color="#3A3379"/>
<stop offset="0.48432" stop-color="#37A9E0"/>
<stop offset="1" stop-color="#6891BB"/>
</linearGradient>
<linearGradient id="paint1_linear_954_2311" x1="768.486" y1="642.927" x2="859.769" y2="621.981" gradientUnits="userSpaceOnUse">
<stop stop-color="#2F2B6F"/>
<stop offset="1" stop-color="#6454A4"/>
</linearGradient>
<linearGradient id="paint2_linear_954_2311" x1="788.402" y1="541.229" x2="1003.75" y2="313.517" gradientUnits="userSpaceOnUse">
<stop offset="0.037" stop-color="#844B93"/>
<stop offset="0.485811" stop-color="#D34A72"/>
<stop offset="1" stop-color="#CA6F72"/>
</linearGradient>
<linearGradient id="paint3_linear_954_2311" x1="1341.81" y1="234.386" x2="1087.99" y2="330.152" gradientUnits="userSpaceOnUse">
<stop stop-color="#181818"/>
<stop offset="1" stop-color="#D4B658"/>
</linearGradient>
<linearGradient id="paint4_linear_954_2311" x1="1247.32" y1="351.816" x2="1043.15" y2="428.176" gradientUnits="userSpaceOnUse">
<stop stop-color="#F38D35"/>
<stop offset="1" stop-color="#F8BA28"/>
</linearGradient>
<linearGradient id="paint5_linear_954_2311" x1="921.88" y1="664.539" x2="512.545" y2="801.408" gradientUnits="userSpaceOnUse">
<stop stop-color="#84C663"/>
<stop offset="0.525988" stop-color="#2FB3E8"/>
<stop offset="1" stop-color="#181818"/>
</linearGradient>
<clipPath id="clip0_954_2311">
<rect width="1440" height="848" fill="white"/>
</clipPath>
</defs>
</svg>
