<svg width="860" height="749" viewBox="0 0 860 749" fill="none" xmlns="http://www.w3.org/2000/svg">
  <g clip-path="url(#a)">
    <g clip-path="url(#b)">
      <path fill="url(#c)" d="M559.62 211H190.161c-30.081 0-54.467 24.44-54.467 54.588s24.386 54.587 54.467 54.587H559.62c30.082 0 54.467-24.439 54.467-54.587 0-30.148-24.385-54.588-54.467-54.588Z"/>
      <path fill="url(#d)" d="M443.001 428.807H179.468c-30.082 0-54.468 24.439-54.468 54.587 0 30.148 24.386 54.588 54.468 54.588h263.533c30.082 0 54.468-24.44 54.468-54.588s-24.386-54.587-54.468-54.587Z"/>
      <path fill="url(#e)" d="M559.603 211c-30.087 0-54.468 24.435-54.468 54.588 0 30.153 24.381 54.587 54.468 54.587 30.086 0 54.467-24.434 54.467-54.587 0-30.153-24.381-54.588-54.467-54.588Z"/>
      <path fill="url(#f)" d="M443.002 428.807c-30.087 0-54.468 24.434-54.468 54.587 0 30.153 24.381 54.588 54.468 54.588 30.086 0 54.467-24.435 54.467-54.588 0-30.153-24.381-54.587-54.467-54.587Z"/>
      <path fill="url(#g)" d="M685.095 320.457H315.636c-30.081 0-54.467 24.44-54.467 54.588s24.386 54.587 54.467 54.587h369.459c30.082 0 54.468-24.439 54.468-54.587 0-30.148-24.386-54.588-54.468-54.588Z"/>
      <path fill="url(#h)" d="M685.515 429.368c30.087 0 54.467-24.312 54.467-54.325 0-30.012-24.38-54.324-54.467-54.324s-54.468 24.312-54.468 54.324c0 30.013 24.381 54.325 54.468 54.325Z"/>
    </g>
  </g>
  <defs>
    <linearGradient id="c" x1="334.784" x2="534.224" y1="265.588" y2="265.588" gradientUnits="userSpaceOnUse">
      <stop stop-color="#181818"/>
      <stop offset="1" stop-color="#929292"/>
    </linearGradient>
    <linearGradient id="d" x1="217.465" x2="415.068" y1="483.394" y2="483.394" gradientUnits="userSpaceOnUse">
      <stop stop-color="#181818"/>
      <stop offset="1" stop-color="#929292"/>
    </linearGradient>
    <linearGradient id="e" x1="633.095" x2="503.665" y1="265.588" y2="265.588" gradientUnits="userSpaceOnUse">
      <stop stop-color="#100C08"/>
      <stop offset="1" stop-color="#929292"/>
    </linearGradient>
    <linearGradient id="f" x1="477.586" x2="388.517" y1="483.412" y2="483.412" gradientUnits="userSpaceOnUse">
      <stop stop-color="#181818"/>
      <stop offset="1" stop-color="#A9A9A9"/>
    </linearGradient>
    <linearGradient id="g" x1="367.339" x2="566.761" y1="375.045" y2="375.045" gradientUnits="userSpaceOnUse">
      <stop stop-color="#181818"/>
      <stop offset=".18" stop-color="#181818"/>
      <stop offset=".32" stop-color="#0F190F"/>
      <stop offset=".45" stop-color="#0E2918"/>
      <stop offset=".56" stop-color="#0D3F25"/>
      <stop offset=".62" stop-color="#11482B"/>
      <stop offset=".74" stop-color="#006A3E"/>
      <stop offset=".88" stop-color="#1FAE72"/>
      <stop offset="1" stop-color="#01F28D"/>
    </linearGradient>
    <linearGradient id="h" x1="711.506" x2="569.911" y1="375.043" y2="375.043" gradientUnits="userSpaceOnUse">
      <stop stop-color="#01F28D"/>
      <stop offset="1" stop-color="#001502"/>
    </linearGradient>
    <clipPath id="a">
      <path fill="#fff" d="M0 0h860v750H0z"/>
    </clipPath>
    <clipPath id="b">
      <path fill="#fff" d="M125 211h615v327H125z"/>
    </clipPath>
  </defs>
</svg>
