<svg width="1445" height="849" viewBox="0 0 1445 849" fill="none" xmlns="http://www.w3.org/2000/svg">
<g clip-path="url(#clip0_954_2341)">
<path d="M681 456.5C681 579.329 780.771 678.902 903.845 678.902C1026.92 678.902 1126.69 579.329 1126.69 456.5C1126.69 333.671 1026.92 234.099 903.845 234.099C780.771 234.099 681 333.671 681 456.5Z" fill="url(#paint0_linear_954_2341)"/>
<path d="M960.667 456.5C960.667 547.948 1035 622.081 1126.69 622.081C1218.38 622.081 1292.72 547.948 1292.72 456.5C1292.72 365.053 1218.38 290.92 1126.69 290.92C1035 290.92 960.667 365.053 960.667 456.5Z" fill="url(#paint1_linear_954_2341)"/>
<mask id="mask0_954_2341" style="mask-type:alpha" maskUnits="userSpaceOnUse" x="706" y="37" width="841" height="839">
<path d="M706.729 456.5C706.729 688.183 894.745 876 1126.67 876C1358.6 876 1546.62 688.184 1546.62 456.5C1546.62 224.817 1358.6 37 1126.67 37C894.745 37 706.729 224.817 706.729 456.5Z" fill="url(#paint2_linear_954_2341)"/>
</mask>
<g mask="url(#mask0_954_2341)">
<path d="M681 456.5C681 579.329 780.771 678.902 903.845 678.902C1026.92 678.902 1126.69 579.329 1126.69 456.5C1126.69 333.671 1026.92 234.099 903.845 234.099C780.771 234.099 681 333.671 681 456.5Z" fill="url(#paint3_linear_954_2341)"/>
</g>
<mask id="mask1_954_2341" style="mask-type:alpha" maskUnits="userSpaceOnUse" x="747" y="77" width="759" height="759">
<path d="M747.57 456.501C747.57 665.629 917.3 835.16 1126.67 835.16C1336.05 835.16 1505.78 665.629 1505.78 456.501C1505.78 247.373 1336.05 77.8408 1126.67 77.8408C917.3 77.8408 747.57 247.373 747.57 456.501Z" fill="url(#paint4_linear_954_2341)"/>
</mask>
<g mask="url(#mask1_954_2341)">
<path d="M681 456.5C681 579.329 780.771 678.902 903.845 678.902C1026.92 678.902 1126.69 579.329 1126.69 456.5C1126.69 333.671 1026.92 234.099 903.845 234.099C780.771 234.099 681 333.671 681 456.5Z" fill="url(#paint5_linear_954_2341)"/>
</g>
<mask id="mask2_954_2341" style="mask-type:alpha" maskUnits="userSpaceOnUse" x="798" y="128" width="658" height="657">
<path d="M798.176 456.501C798.176 637.68 945.249 784.554 1126.67 784.554C1308.1 784.554 1455.17 637.68 1455.17 456.501C1455.17 275.322 1308.1 128.447 1126.67 128.447C945.249 128.447 798.176 275.322 798.176 456.501Z" fill="url(#paint6_linear_954_2341)"/>
</mask>
<g mask="url(#mask2_954_2341)">
<path d="M681 456.501C681 579.33 780.772 678.903 903.846 678.903C1026.92 678.903 1126.69 579.33 1126.69 456.501C1126.69 333.672 1026.92 234.1 903.846 234.1C780.772 234.1 681 333.672 681 456.501Z" fill="url(#paint7_linear_954_2341)"/>
</g>
<mask id="mask3_954_2341" style="mask-type:alpha" maskUnits="userSpaceOnUse" x="849" y="179" width="555" height="555">
<path d="M849.67 456.501C849.67 609.24 973.689 733.06 1126.67 733.06C1279.66 733.06 1403.68 609.24 1403.68 456.501C1403.68 303.761 1279.66 179.941 1126.67 179.941C973.689 179.941 849.67 303.761 849.67 456.501Z" fill="url(#paint8_linear_954_2341)"/>
</mask>
<g mask="url(#mask3_954_2341)">
<path d="M681.001 456.5C681.001 579.329 780.772 678.902 903.846 678.902C1026.92 678.902 1126.69 579.329 1126.69 456.5C1126.69 333.671 1026.92 234.099 903.846 234.099C780.772 234.099 681.001 333.671 681.001 456.5Z" fill="url(#paint9_linear_954_2341)"/>
</g>
<mask id="mask4_954_2341" style="mask-type:alpha" maskUnits="userSpaceOnUse" x="903" y="234" width="447" height="445">
<path d="M903.828 456.5C903.828 579.329 1003.6 678.902 1126.67 678.902C1249.75 678.902 1349.52 579.329 1349.52 456.5C1349.52 333.671 1249.75 234.099 1126.67 234.099C1003.6 234.099 903.828 333.671 903.828 456.5Z" fill="url(#paint10_linear_954_2341)"/>
</mask>
<g mask="url(#mask4_954_2341)">
<path d="M681 456.5C681 579.329 780.771 678.902 903.845 678.902C1026.92 678.902 1126.69 579.329 1126.69 456.5C1126.69 333.671 1026.92 234.099 903.845 234.099C780.771 234.099 681 333.671 681 456.5Z" fill="url(#paint11_linear_954_2341)"/>
</g>
<mask id="mask5_954_2341" style="mask-type:alpha" maskUnits="userSpaceOnUse" x="960" y="290" width="333" height="333">
<path d="M960.667 456.499C960.667 547.947 1035 622.08 1126.69 622.08C1218.38 622.08 1292.72 547.947 1292.72 456.499C1292.72 365.052 1218.38 290.919 1126.69 290.919C1035 290.919 960.667 365.052 960.667 456.499Z" fill="url(#paint12_linear_954_2341)"/>
</mask>
<g mask="url(#mask5_954_2341)">
<path d="M681 456.499C681 579.328 780.772 678.901 903.846 678.901C1026.92 678.901 1126.69 579.328 1126.69 456.499C1126.69 333.67 1026.92 234.098 903.846 234.098C780.772 234.098 681 333.67 681 456.499Z" fill="url(#paint13_linear_954_2341)"/>
</g>
</g>
<defs>
<linearGradient id="paint0_linear_954_2341" x1="591.5" y1="572.5" x2="617.367" y2="345.339" gradientUnits="userSpaceOnUse">
<stop stop-color="#6556A2"/>
<stop offset="1" stop-color="#2D2D33"/>
</linearGradient>
<linearGradient id="paint1_linear_954_2341" x1="1469.98" y1="192.737" x2="1101.92" y2="180.793" gradientUnits="userSpaceOnUse">
<stop stop-color="#7061B1"/>
<stop offset="1" stop-color="#2C2937"/>
</linearGradient>
<linearGradient id="paint2_linear_954_2341" x1="1995" y1="-211.749" x2="811.822" y2="-250.082" gradientUnits="userSpaceOnUse">
<stop stop-color="#983DE0"/>
<stop offset="1" stop-color="#121212"/>
</linearGradient>
<linearGradient id="paint3_linear_954_2341" x1="751.5" y1="679" x2="803.507" y2="324.186" gradientUnits="userSpaceOnUse">
<stop stop-color="#6556A2"/>
<stop offset="1" stop-color="#2D2D33"/>
</linearGradient>
<linearGradient id="paint4_linear_954_2341" x1="1910.56" y1="-146.691" x2="842.443" y2="-181.3" gradientUnits="userSpaceOnUse">
<stop stop-color="#983DE0"/>
<stop offset="1" stop-color="#121212"/>
</linearGradient>
<linearGradient id="paint5_linear_954_2341" x1="702.001" y1="927.5" x2="682.011" y2="233.352" gradientUnits="userSpaceOnUse">
<stop stop-color="#6556A2"/>
<stop offset="1" stop-color="#2D2D33"/>
</linearGradient>
<linearGradient id="paint6_linear_954_2341" x1="1805.92" y1="-66.0769" x2="880.384" y2="-96.0712" gradientUnits="userSpaceOnUse">
<stop stop-color="#983DE0"/>
<stop offset="1" stop-color="#121212"/>
</linearGradient>
<linearGradient id="paint7_linear_954_2341" x1="389.5" y1="1288" x2="1097.63" y2="266.463" gradientUnits="userSpaceOnUse">
<stop stop-color="#6556A2"/>
<stop offset="1" stop-color="#2D2D33"/>
</linearGradient>
<linearGradient id="paint8_linear_954_2341" x1="1699.44" y1="15.9515" x2="1085.35" y2="-3.95477" gradientUnits="userSpaceOnUse">
<stop stop-color="#983DE0"/>
<stop offset="1" stop-color="#121212"/>
</linearGradient>
<linearGradient id="paint9_linear_954_2341" x1="794" y1="688.5" x2="1148.67" y2="467.558" gradientUnits="userSpaceOnUse">
<stop stop-color="#6556A2"/>
<stop offset="1" stop-color="#2D2D33"/>
</linearGradient>
<linearGradient id="paint10_linear_954_2341" x1="1587.46" y1="102.222" x2="1093.43" y2="86.2017" gradientUnits="userSpaceOnUse">
<stop stop-color="#983DE0"/>
<stop offset="1" stop-color="#121212"/>
</linearGradient>
<linearGradient id="paint11_linear_954_2341" x1="888" y1="456.057" x2="1329.1" y2="470.361" gradientUnits="userSpaceOnUse">
<stop stop-color="#6556A2"/>
<stop offset="1" stop-color="#2D2D33"/>
</linearGradient>
<linearGradient id="paint12_linear_954_2341" x1="1164.06" y1="456.169" x2="1443.56" y2="465.239" gradientUnits="userSpaceOnUse">
<stop stop-color="#5C4F8E"/>
<stop offset="1" stop-color="#2D2D33"/>
</linearGradient>
<linearGradient id="paint13_linear_954_2341" x1="954.008" y1="456.056" x2="1329.17" y2="468.221" gradientUnits="userSpaceOnUse">
<stop stop-color="#6556A2"/>
<stop offset="1" stop-color="#2D2D33"/>
</linearGradient>
<clipPath id="clip0_954_2341">
<rect width="1445" height="848.162" fill="white"/>
</clipPath>
</defs>
</svg>
