<svg width="1440" height="848" viewBox="0 0 1440 848" fill="none" xmlns="http://www.w3.org/2000/svg">
<path d="M975.409 243.34C821.773 89.6238 614.289 297.188 767.952 450.904L943.83 626.874C961.294 644.347 989.578 644.347 1007.04 626.874L1182.92 450.904C1336.53 297.188 1129.04 89.6238 975.409 243.34Z" stroke="url(#paint0_linear_954_2383)" stroke-opacity="0.5" stroke-width="90.0141" stroke-miterlimit="10" stroke-linecap="round" stroke-linejoin="round"/>
<path d="M717.115 310.372C710.013 354.584 723.832 404.875 769.376 450.435L926.214 609.95" stroke="url(#paint1_linear_954_2383)" stroke-opacity="0.6" stroke-width="90.0141" stroke-miterlimit="10" stroke-linecap="round"/>
<path d="M1048.56 585.356L1182.92 450.905" stroke="url(#paint2_linear_954_2383)" stroke-opacity="0.6" stroke-width="90.0141" stroke-miterlimit="10" stroke-linecap="round"/>
<path d="M975.436 243.036C1046.85 171.59 1129.89 178.192 1182.89 221.16" stroke="url(#paint3_linear_954_2383)" stroke-opacity="0.6" stroke-width="90.0141" stroke-miterlimit="10" stroke-linecap="round"/>
<path d="M973.743 288.619C948.887 288.619 928.736 268.468 928.736 243.612C928.736 218.755 948.887 198.604 973.743 198.604C998.6 198.604 1018.75 218.755 1018.75 243.612C1018.75 268.468 998.6 288.619 973.743 288.619Z" fill="url(#paint4_linear_954_2383)"/>
<path d="M717.007 355.379C692.15 355.379 672 335.229 672 310.372C672 285.516 692.15 265.365 717.007 265.365C741.864 265.365 762.014 285.516 762.014 310.372C762.014 335.229 741.864 355.379 717.007 355.379Z" fill="url(#paint5_linear_954_2383)"/>
<path d="M1048.56 630.672C1023.7 630.672 1003.55 610.522 1003.55 585.665C1003.55 560.809 1023.7 540.658 1048.56 540.658C1073.42 540.658 1093.57 560.809 1093.57 585.665C1093.57 610.522 1073.42 630.672 1048.56 630.672Z" fill="url(#paint6_linear_954_2383)"/>
<defs>
<linearGradient id="paint0_linear_954_2383" x1="1354.23" y1="365.881" x2="555.667" y2="259.358" gradientUnits="userSpaceOnUse">
<stop stop-color="#7E7E7E"/>
<stop offset="1" stop-color="#1F1F1F" stop-opacity="0.5"/>
</linearGradient>
<linearGradient id="paint1_linear_954_2383" x1="912.504" y1="633.935" x2="702.005" y2="336.023" gradientUnits="userSpaceOnUse">
<stop stop-color="#D75E52" stop-opacity="0"/>
<stop offset="1" stop-color="#DC594D"/>
</linearGradient>
<linearGradient id="paint2_linear_954_2383" x1="1059.44" y1="568.559" x2="1209.46" y2="424.912" gradientUnits="userSpaceOnUse">
<stop offset="0.0142823" stop-color="#4397D2"/>
<stop offset="1" stop-color="#494949"/>
</linearGradient>
<linearGradient id="paint3_linear_954_2383" x1="988.925" y1="247.362" x2="1166.33" y2="247.362" gradientUnits="userSpaceOnUse">
<stop stop-color="#CB4086"/>
<stop offset="1" stop-color="#CE3F86" stop-opacity="0"/>
</linearGradient>
<linearGradient id="paint4_linear_954_2383" x1="1029.56" y1="187.78" x2="928.718" y2="288.619" gradientUnits="userSpaceOnUse">
<stop offset="0.037" stop-color="#AA478F"/>
<stop offset="1" stop-color="#CF3F85"/>
</linearGradient>
<linearGradient id="paint5_linear_954_2383" x1="705.005" y1="355.526" x2="730.509" y2="265.512" gradientUnits="userSpaceOnUse">
<stop offset="0.037" stop-color="#DB5A4E"/>
<stop offset="1" stop-color="#CC7263"/>
</linearGradient>
<linearGradient id="paint6_linear_954_2383" x1="1081.56" y1="559.558" x2="1018.93" y2="618.442" gradientUnits="userSpaceOnUse">
<stop stop-color="#4493CF"/>
<stop offset="0.0001" stop-color="#4493CF"/>
<stop offset="1" stop-color="#778FAF"/>
</linearGradient>
</defs>
</svg>
