<svg width="1445" height="849" viewBox="0 0 1445 849" fill="none" xmlns="http://www.w3.org/2000/svg">
<rect x="957" y="477" width="450" height="106" rx="53" transform="rotate(-90 957 477)" fill="url(#paint0_linear_954_2418)"/>
<rect x="957" y="821" width="450" height="106" rx="53" transform="rotate(-90 957 821)" fill="url(#paint1_linear_954_2418)"/>
<path d="M1006.55 603.386V675.253H1013.42V603.386H1030.89L1009.94 561.152L989 603.386H1006.55Z" fill="url(#paint2_linear_954_2418)"/>
<path d="M1013.45 244.866L1013.45 172.999L1006.58 172.999L1006.58 244.866L989.114 244.866L1010.06 287.1L1031 244.866L1013.45 244.866Z" fill="url(#paint3_linear_954_2418)"/>
<rect x="957" y="371" width="450" height="106" rx="53" fill="url(#paint4_linear_954_2418)"/>
<rect x="613" y="371" width="450" height="106" rx="53" fill="url(#paint5_linear_954_2418)"/>
<path d="M830.614 420.554L758.747 420.554L758.747 427.419L830.614 427.419L830.614 444.886L872.847 423.943L830.614 403L830.614 420.554Z" fill="url(#paint6_linear_954_2418)"/>
<path d="M1189.13 427.446L1261 427.446L1261 420.581L1189.13 420.581L1189.13 403.114L1146.9 424.057L1189.13 445L1189.13 427.446Z" fill="url(#paint7_linear_954_2418)"/>
<rect x="935.046" y="424" width="450" height="106" rx="53" transform="rotate(-45 935.046 424)" fill="url(#paint8_linear_954_2418)"/>
<rect x="691.802" y="667.244" width="450" height="106" rx="53" transform="rotate(-45 691.802 667.244)" fill="url(#paint9_linear_954_2418)"/>
<path d="M880.718 548.408L829.9 599.225L834.755 604.08L885.572 553.262L897.923 565.613L912.978 520.941L868.305 535.996L880.718 548.408Z" fill="url(#paint10_linear_954_2418)"/>
<path d="M1139.1 299.77L1189.92 248.952L1185.07 244.098L1134.25 294.915L1121.9 282.564L1106.84 327.237L1151.52 312.182L1139.1 299.77Z" fill="url(#paint11_linear_954_2418)"/>
<rect x="1010" y="349.046" width="450" height="106" rx="53" transform="rotate(45 1010 349.046)" fill="url(#paint12_linear_954_2418)"/>
<rect x="766.755" y="105.802" width="450" height="106" rx="53" transform="rotate(45 766.755 105.802)" fill="url(#paint13_linear_954_2418)"/>
<path d="M885.592 294.717L834.774 243.899L829.92 248.754L880.737 299.571L868.386 311.922L913.059 326.977L898.004 282.304L885.592 294.717Z" fill="url(#paint14_linear_954_2418)"/>
<path d="M1134.23 553.103L1185.05 603.92L1189.9 599.066L1139.08 548.248L1151.44 535.897L1106.76 520.842L1121.82 565.515L1134.23 553.103Z" fill="url(#paint15_linear_954_2418)"/>
<path d="M1010 510C1057.5 510 1096 471.496 1096 424C1096 376.504 1057.5 338 1010 338C962.504 338 924 376.504 924 424C924 471.496 962.504 510 1010 510Z" fill="url(#paint16_linear_954_2418)"/>
<defs>
<linearGradient id="paint0_linear_954_2418" x1="1516.62" y1="583" x2="1003.42" y2="583" gradientUnits="userSpaceOnUse">
<stop stop-color="#303030"/>
<stop offset="1" stop-color="#333333" stop-opacity="0"/>
</linearGradient>
<linearGradient id="paint1_linear_954_2418" x1="1516.62" y1="927" x2="1003.42" y2="927" gradientUnits="userSpaceOnUse">
<stop stop-color="#303030"/>
<stop offset="1" stop-color="#333333" stop-opacity="0"/>
</linearGradient>
<linearGradient id="paint2_linear_954_2418" x1="994.601" y1="576.415" x2="985.312" y2="714.097" gradientUnits="userSpaceOnUse">
<stop stop-color="#F36E61"/>
<stop offset="1" stop-color="#212121"/>
</linearGradient>
<linearGradient id="paint3_linear_954_2418" x1="1025.4" y1="271.837" x2="1034.69" y2="134.155" gradientUnits="userSpaceOnUse">
<stop stop-color="#F36E61"/>
<stop offset="1" stop-color="#212121"/>
</linearGradient>
<linearGradient id="paint4_linear_954_2418" x1="1516.62" y1="477" x2="1003.42" y2="477" gradientUnits="userSpaceOnUse">
<stop stop-color="#303030"/>
<stop offset="1" stop-color="#333333" stop-opacity="0"/>
</linearGradient>
<linearGradient id="paint5_linear_954_2418" x1="1172.62" y1="477" x2="659.416" y2="477" gradientUnits="userSpaceOnUse">
<stop stop-color="#303030"/>
<stop offset="1" stop-color="#333333" stop-opacity="0"/>
</linearGradient>
<linearGradient id="paint6_linear_954_2418" x1="857.585" y1="408.601" x2="719.903" y2="399.312" gradientUnits="userSpaceOnUse">
<stop stop-color="#F36E61"/>
<stop offset="1" stop-color="#212121"/>
</linearGradient>
<linearGradient id="paint7_linear_954_2418" x1="1162.16" y1="439.399" x2="1299.84" y2="448.688" gradientUnits="userSpaceOnUse">
<stop stop-color="#F36E61"/>
<stop offset="1" stop-color="#212121"/>
</linearGradient>
<linearGradient id="paint8_linear_954_2418" x1="1494.67" y1="530" x2="981.462" y2="530" gradientUnits="userSpaceOnUse">
<stop stop-color="#303030"/>
<stop offset="1" stop-color="#333333" stop-opacity="0"/>
</linearGradient>
<linearGradient id="paint9_linear_954_2418" x1="1251.42" y1="773.244" x2="738.217" y2="773.244" gradientUnits="userSpaceOnUse">
<stop stop-color="#303030"/>
<stop offset="1" stop-color="#333333" stop-opacity="0"/>
</linearGradient>
<linearGradient id="paint10_linear_954_2418" x1="891.337" y1="520.885" x2="787.413" y2="611.672" gradientUnits="userSpaceOnUse">
<stop stop-color="#F36E61"/>
<stop offset="1" stop-color="#212121"/>
</linearGradient>
<linearGradient id="paint11_linear_954_2418" x1="1128.48" y1="327.293" x2="1232.41" y2="236.506" gradientUnits="userSpaceOnUse">
<stop stop-color="#F36E61"/>
<stop offset="1" stop-color="#212121"/>
</linearGradient>
<linearGradient id="paint12_linear_954_2418" x1="1569.62" y1="455.046" x2="1056.42" y2="455.046" gradientUnits="userSpaceOnUse">
<stop stop-color="#303030"/>
<stop offset="1" stop-color="#333333" stop-opacity="0"/>
</linearGradient>
<linearGradient id="paint13_linear_954_2418" x1="1326.38" y1="211.802" x2="813.171" y2="211.802" gradientUnits="userSpaceOnUse">
<stop stop-color="#303030"/>
<stop offset="1" stop-color="#333333" stop-opacity="0"/>
</linearGradient>
<linearGradient id="paint14_linear_954_2418" x1="913.115" y1="305.336" x2="822.328" y2="201.412" gradientUnits="userSpaceOnUse">
<stop stop-color="#F36E61"/>
<stop offset="1" stop-color="#212121"/>
</linearGradient>
<linearGradient id="paint15_linear_954_2418" x1="1106.71" y1="542.483" x2="1197.49" y2="646.407" gradientUnits="userSpaceOnUse">
<stop stop-color="#F36E61"/>
<stop offset="1" stop-color="#212121"/>
</linearGradient>
<linearGradient id="paint16_linear_954_2418" x1="947" y1="361.007" x2="941.839" y2="569.372" gradientUnits="userSpaceOnUse">
<stop stop-color="#F36E61"/>
<stop offset="1" stop-color="#212121"/>
</linearGradient>
</defs>
</svg>
