<svg width="860" height="749" viewBox="0 0 860 749" fill="none" xmlns="http://www.w3.org/2000/svg">
<g clip-path="url(#clip0_2163_2986)">
<g clip-path="url(#clip1_2163_2986)">
<path d="M389.671 374.442V109.771C389.671 87.2524 407.923 69 430.442 69C452.96 69 471.212 87.2524 471.212 109.771V374.442C471.212 396.96 452.96 415.212 430.442 415.212C407.923 415.212 389.671 396.96 389.671 374.442Z" fill="url(#paint0_linear_2163_2986)"/>
<path d="M389.671 639.09V374.419C389.671 351.901 407.923 333.648 430.442 333.648C452.96 333.648 471.212 351.901 471.212 374.419V639.09C471.212 661.608 452.96 679.861 430.442 679.861C407.923 679.861 389.671 661.608 389.671 639.09Z" fill="url(#paint1_linear_2163_2986)"/>
<path d="M427.784 512.443V567.736H433.076V512.443H446.503L430.395 479.947L414.287 512.443H427.784Z" fill="url(#paint2_linear_2163_2986)"/>
<path d="M433.099 236.627V181.334H427.807V236.627H414.38L430.488 269.123L446.596 236.627H433.099Z" fill="url(#paint3_linear_2163_2986)"/>
<path d="M430.442 333.672H695.113C717.631 333.672 735.883 351.924 735.883 374.442C735.883 396.961 717.631 415.213 695.113 415.213H430.442C407.923 415.213 389.671 396.961 389.671 374.442C389.671 351.924 407.923 333.672 430.442 333.672Z" fill="url(#paint4_linear_2163_2986)"/>
<path d="M165.771 333.672H430.442C452.96 333.672 471.212 351.924 471.212 374.442C471.212 396.961 452.96 415.213 430.442 415.213H165.771C143.252 415.213 125 396.961 125 374.442C125 351.924 143.252 333.672 165.771 333.672Z" fill="url(#paint5_linear_2163_2986)"/>
<path d="M292.418 371.784H237.125V377.076H292.418V390.503L324.914 374.395L292.418 358.287V371.784Z" fill="url(#paint6_linear_2163_2986)"/>
<path d="M568.255 377.099H623.548V371.808H568.255V358.381L535.76 374.489L568.255 390.596V377.099Z" fill="url(#paint7_linear_2163_2986)"/>
<path d="M401.606 345.606L588.745 158.466C604.667 142.545 630.495 142.545 646.416 158.466C662.337 174.388 662.337 200.216 646.416 216.137L459.277 403.277C443.356 419.198 417.527 419.198 401.606 403.277C385.685 387.355 385.685 361.527 401.606 345.606Z" fill="url(#paint8_linear_2163_2986)"/>
<path d="M214.467 532.746L401.606 345.607C417.527 329.686 443.356 329.686 459.277 345.607C475.198 361.528 475.198 387.357 459.277 403.278L272.138 590.417C256.217 606.338 230.388 606.338 214.467 590.417C198.546 574.496 198.546 548.668 214.467 532.746Z" fill="url(#paint9_linear_2163_2986)"/>
<path d="M330.975 470.157L291.882 509.249L295.612 512.979L334.704 473.886L344.215 483.397L355.801 449.037L321.44 460.623L330.998 470.18L330.975 470.157Z" fill="url(#paint10_linear_2163_2986)"/>
<path d="M529.769 278.867L568.861 239.775L565.131 236.045L526.039 275.137L516.528 265.626L504.943 299.986L539.303 288.401L529.746 278.844L529.769 278.867Z" fill="url(#paint11_linear_2163_2986)"/>
<path d="M459.277 345.607L646.416 532.746C662.337 548.668 662.337 574.496 646.416 590.417C630.495 606.338 604.667 606.338 588.745 590.417L401.606 403.278C385.685 387.357 385.685 361.528 401.606 345.607C417.527 329.686 443.356 329.686 459.277 345.607Z" fill="url(#paint12_linear_2163_2986)"/>
<path d="M272.138 158.466L459.277 345.606C475.198 361.527 475.198 387.355 459.277 403.277C443.356 419.198 417.527 419.198 401.606 403.277L214.467 216.137C198.546 200.216 198.546 174.388 214.467 158.466C230.388 142.545 256.217 142.545 272.138 158.466Z" fill="url(#paint13_linear_2163_2986)"/>
<path d="M334.727 274.975L295.635 235.883L291.905 239.613L330.998 278.705L321.487 288.216L355.847 299.801L344.261 265.441L334.704 274.998L334.727 274.975Z" fill="url(#paint14_linear_2163_2986)"/>
<path d="M526.016 473.769L565.108 512.862L568.838 509.132L529.746 470.04L539.257 460.529L504.896 448.943L516.482 483.303L526.039 473.746L526.016 473.769Z" fill="url(#paint15_linear_2163_2986)"/>
<path d="M430.442 440.597C466.993 440.597 496.598 410.969 496.598 374.441C496.598 337.913 466.97 308.285 430.442 308.285C393.914 308.285 364.286 337.913 364.286 374.441C364.286 410.969 393.914 440.597 430.442 440.597Z" fill="url(#paint16_linear_2163_2986)"/>
</g>
</g>
<defs>
<linearGradient id="paint0_linear_2163_2986" x1="430.442" y1="100.003" x2="430.442" y2="494.865" gradientUnits="userSpaceOnUse">
<stop stop-color="#181818"/>
<stop offset="1" stop-color="#929292"/>
</linearGradient>
<linearGradient id="paint1_linear_2163_2986" x1="430.442" y1="697.041" x2="430.442" y2="213.062" gradientUnits="userSpaceOnUse">
<stop stop-color="#181818"/>
<stop offset="1" stop-color="#929292"/>
</linearGradient>
<linearGradient id="paint2_linear_2163_2986" x1="395.457" y1="440.479" x2="473.059" y2="467.623" gradientUnits="userSpaceOnUse">
<stop stop-color="#165556"/>
<stop offset="1" stop-color="#00EEFF"/>
</linearGradient>
<linearGradient id="paint3_linear_2163_2986" x1="395.55" y1="141.866" x2="473.152" y2="169.009" gradientUnits="userSpaceOnUse">
<stop stop-color="#165556"/>
<stop offset="1" stop-color="#00EEFF"/>
</linearGradient>
<linearGradient id="paint4_linear_2163_2986" x1="805.979" y1="374.443" x2="-48.9687" y2="374.443" gradientUnits="userSpaceOnUse">
<stop stop-color="#181818"/>
<stop offset="1" stop-color="#929292"/>
</linearGradient>
<linearGradient id="paint5_linear_2163_2986" x1="193.301" y1="374.443" x2="698.609" y2="374.443" gradientUnits="userSpaceOnUse">
<stop stop-color="#181818"/>
<stop offset="1" stop-color="#929292"/>
</linearGradient>
<linearGradient id="paint6_linear_2163_2986" x1="185.813" y1="343.804" x2="216.451" y2="423.383" gradientUnits="userSpaceOnUse">
<stop stop-color="#165556"/>
<stop offset="1" stop-color="#00EEFF"/>
</linearGradient>
<linearGradient id="paint7_linear_2163_2986" x1="484.448" y1="343.897" x2="515.086" y2="423.477" gradientUnits="userSpaceOnUse">
<stop stop-color="#165556"/>
<stop offset="1" stop-color="#00EEFF"/>
</linearGradient>
<linearGradient id="paint8_linear_2163_2986" x1="690.8" y1="114.083" x2="188.312" y2="616.571" gradientUnits="userSpaceOnUse">
<stop stop-color="#181818"/>
<stop offset="1" stop-color="#929292"/>
</linearGradient>
<linearGradient id="paint9_linear_2163_2986" x1="243.279" y1="561.605" x2="545.084" y2="259.777" gradientUnits="userSpaceOnUse">
<stop stop-color="#181818"/>
<stop offset="1" stop-color="#929292"/>
</linearGradient>
<linearGradient id="paint10_linear_2163_2986" x1="254.522" y1="420.29" x2="345.098" y2="506.592" gradientUnits="userSpaceOnUse">
<stop stop-color="#165556"/>
<stop offset="1" stop-color="#00EEFF"/>
</linearGradient>
<linearGradient id="paint11_linear_2163_2986" x1="467.583" y1="207.298" x2="558.158" y2="293.6" gradientUnits="userSpaceOnUse">
<stop stop-color="#165556"/>
<stop offset="1" stop-color="#00EEFF"/>
</linearGradient>
<linearGradient id="paint12_linear_2163_2986" x1="663.899" y1="607.9" x2="221.46" y2="165.461" gradientUnits="userSpaceOnUse">
<stop stop-color="#181818"/>
<stop offset="1" stop-color="#929292"/>
</linearGradient>
<linearGradient id="paint13_linear_2163_2986" x1="254.212" y1="198.211" x2="655.857" y2="599.857" gradientUnits="userSpaceOnUse">
<stop stop-color="#181818"/>
<stop offset="1" stop-color="#929292"/>
</linearGradient>
<linearGradient id="paint14_linear_2163_2986" x1="254.532" y1="207.146" x2="345.077" y2="293.482" gradientUnits="userSpaceOnUse">
<stop stop-color="#165556"/>
<stop offset="1" stop-color="#00EEFF"/>
</linearGradient>
<linearGradient id="paint15_linear_2163_2986" x1="467.523" y1="420.207" x2="558.068" y2="506.543" gradientUnits="userSpaceOnUse">
<stop stop-color="#165556"/>
<stop offset="1" stop-color="#00EEFF"/>
</linearGradient>
<linearGradient id="paint16_linear_2163_2986" x1="286.95" y1="248.8" x2="474.378" y2="427.449" gradientUnits="userSpaceOnUse">
<stop stop-color="#165556"/>
<stop offset="1" stop-color="#00EEFF"/>
</linearGradient>
<clipPath id="clip0_2163_2986">
<rect width="860" height="750" fill="white"/>
</clipPath>
<clipPath id="clip1_2163_2986">
<rect width="610.883" height="610.883" fill="white" transform="translate(125 69)"/>
</clipPath>
</defs>
</svg>
