<svg width="860" height="749" viewBox="0 0 860 749" fill="none" xmlns="http://www.w3.org/2000/svg">
  <g clip-path="url(#a)">
    <g clip-path="url(#b)">
      <path fill="url(#c)" d="M389.671 374.442V109.771c0-22.519 18.252-40.771 40.771-40.771 22.518 0 40.77 18.252 40.77 40.771v264.671c0 22.518-18.252 40.77-40.77 40.77-22.519 0-40.771-18.252-40.771-40.77Z"/>
      <path fill="url(#d)" d="M389.671 639.09V374.419c0-22.518 18.252-40.771 40.771-40.771 22.518 0 40.77 18.253 40.77 40.771V639.09c0 22.518-18.252 40.771-40.77 40.771-22.519 0-40.771-18.253-40.771-40.771Z"/>
      <path fill="url(#e)" d="M427.784 512.443v55.293h5.292v-55.293h13.427l-16.108-32.496-16.108 32.496h13.497Z"/>
      <path fill="url(#f)" d="M433.099 236.627v-55.293h-5.292v55.293H414.38l16.108 32.496 16.108-32.496h-13.497Z"/>
      <path fill="url(#g)" d="M430.442 333.672h264.671c22.518 0 40.77 18.252 40.77 40.77 0 22.519-18.252 40.771-40.77 40.771H430.442c-22.519 0-40.771-18.252-40.771-40.771 0-22.518 18.252-40.77 40.771-40.77Z"/>
      <path fill="url(#h)" d="M165.771 333.672h264.671c22.518 0 40.77 18.252 40.77 40.77 0 22.519-18.252 40.771-40.77 40.771H165.771c-22.519 0-40.771-18.252-40.771-40.771 0-22.518 18.252-40.77 40.771-40.77Z"/>
      <path fill="url(#i)" d="M292.418 371.784h-55.293v5.292h55.293v13.427l32.496-16.108-32.496-16.108v13.497Z"/>
      <path fill="url(#j)" d="M568.255 377.099h55.293v-5.291h-55.293v-13.427l-32.495 16.108 32.495 16.107v-13.497Z"/>
      <path fill="url(#k)" d="m401.606 345.606 187.139-187.14c15.922-15.921 41.75-15.921 57.671 0 15.921 15.922 15.921 41.75 0 57.671l-187.139 187.14c-15.921 15.921-41.75 15.921-57.671 0-15.921-15.922-15.921-41.75 0-57.671Z"/>
      <path fill="url(#l)" d="m214.467 532.746 187.139-187.139c15.921-15.921 41.75-15.921 57.671 0s15.921 41.75 0 57.671L272.138 590.417c-15.921 15.921-41.75 15.921-57.671 0s-15.921-41.749 0-57.671Z"/>
      <path fill="url(#m)" d="m330.975 470.157-39.093 39.092 3.73 3.73 39.092-39.093 9.511 9.511 11.586-34.36-34.361 11.586 9.558 9.557-.023-.023Z"/>
      <path fill="url(#n)" d="m529.769 278.867 39.092-39.092-3.73-3.73-39.092 39.092-9.511-9.511-11.585 34.36 34.36-11.585-9.557-9.557.023.023Z"/>
      <path fill="url(#o)" d="m459.277 345.607 187.139 187.139c15.921 15.922 15.921 41.75 0 57.671s-41.749 15.921-57.671 0L401.606 403.278c-15.921-15.921-15.921-41.75 0-57.671s41.75-15.921 57.671 0Z"/>
      <path fill="url(#p)" d="m272.138 158.466 187.139 187.14c15.921 15.921 15.921 41.749 0 57.671-15.921 15.921-41.75 15.921-57.671 0l-187.139-187.14c-15.921-15.921-15.921-41.749 0-57.671 15.921-15.921 41.75-15.921 57.671 0Z"/>
      <path fill="url(#q)" d="m334.727 274.975-39.092-39.092-3.73 3.73 39.093 39.092-9.511 9.511 34.36 11.585-11.586-34.36-9.557 9.557.023-.023Z"/>
      <path fill="url(#r)" d="m526.016 473.769 39.092 39.093 3.73-3.73-39.092-39.092 9.511-9.511-34.361-11.586 11.586 34.36 9.557-9.557-.023.023Z"/>
      <path fill="url(#s)" d="M430.442 440.597c36.551 0 66.156-29.628 66.156-66.156 0-36.528-29.628-66.156-66.156-66.156-36.528 0-66.156 29.628-66.156 66.156 0 36.528 29.628 66.156 66.156 66.156Z"/>
    </g>
  </g>
  <defs>
    <linearGradient id="c" x1="430.442" x2="430.442" y1="100.003" y2="494.865" gradientUnits="userSpaceOnUse">
      <stop stop-color="#181818"/>
      <stop offset="1" stop-color="#929292"/>
    </linearGradient>
    <linearGradient id="d" x1="430.442" x2="430.442" y1="697.041" y2="213.062" gradientUnits="userSpaceOnUse">
      <stop stop-color="#181818"/>
      <stop offset="1" stop-color="#929292"/>
    </linearGradient>
    <linearGradient id="e" x1="395.457" x2="473.059" y1="440.479" y2="467.623" gradientUnits="userSpaceOnUse">
      <stop stop-color="#165556"/>
      <stop offset="1" stop-color="#0EF"/>
    </linearGradient>
    <linearGradient id="f" x1="395.55" x2="473.152" y1="141.866" y2="169.009" gradientUnits="userSpaceOnUse">
      <stop stop-color="#165556"/>
      <stop offset="1" stop-color="#0EF"/>
    </linearGradient>
    <linearGradient id="g" x1="805.979" x2="-48.969" y1="374.443" y2="374.443" gradientUnits="userSpaceOnUse">
      <stop stop-color="#181818"/>
      <stop offset="1" stop-color="#929292"/>
    </linearGradient>
    <linearGradient id="h" x1="193.301" x2="698.609" y1="374.443" y2="374.443" gradientUnits="userSpaceOnUse">
      <stop stop-color="#181818"/>
      <stop offset="1" stop-color="#929292"/>
    </linearGradient>
    <linearGradient id="i" x1="185.813" x2="216.451" y1="343.804" y2="423.383" gradientUnits="userSpaceOnUse">
      <stop stop-color="#165556"/>
      <stop offset="1" stop-color="#0EF"/>
    </linearGradient>
    <linearGradient id="j" x1="484.448" x2="515.086" y1="343.897" y2="423.477" gradientUnits="userSpaceOnUse">
      <stop stop-color="#165556"/>
      <stop offset="1" stop-color="#0EF"/>
    </linearGradient>
    <linearGradient id="k" x1="690.8" x2="188.312" y1="114.083" y2="616.571" gradientUnits="userSpaceOnUse">
      <stop stop-color="#181818"/>
      <stop offset="1" stop-color="#929292"/>
    </linearGradient>
    <linearGradient id="l" x1="243.279" x2="545.084" y1="561.605" y2="259.777" gradientUnits="userSpaceOnUse">
      <stop stop-color="#181818"/>
      <stop offset="1" stop-color="#929292"/>
    </linearGradient>
    <linearGradient id="m" x1="254.522" x2="345.098" y1="420.29" y2="506.592" gradientUnits="userSpaceOnUse">
      <stop stop-color="#165556"/>
      <stop offset="1" stop-color="#0EF"/>
    </linearGradient>
    <linearGradient id="n" x1="467.583" x2="558.158" y1="207.298" y2="293.6" gradientUnits="userSpaceOnUse">
      <stop stop-color="#165556"/>
      <stop offset="1" stop-color="#0EF"/>
    </linearGradient>
    <linearGradient id="o" x1="663.899" x2="221.46" y1="607.9" y2="165.461" gradientUnits="userSpaceOnUse">
      <stop stop-color="#181818"/>
      <stop offset="1" stop-color="#929292"/>
    </linearGradient>
    <linearGradient id="p" x1="254.212" x2="655.857" y1="198.211" y2="599.857" gradientUnits="userSpaceOnUse">
      <stop stop-color="#181818"/>
      <stop offset="1" stop-color="#929292"/>
    </linearGradient>
    <linearGradient id="q" x1="254.532" x2="345.077" y1="207.146" y2="293.482" gradientUnits="userSpaceOnUse">
      <stop stop-color="#165556"/>
      <stop offset="1" stop-color="#0EF"/>
    </linearGradient>
    <linearGradient id="r" x1="467.523" x2="558.068" y1="420.207" y2="506.543" gradientUnits="userSpaceOnUse">
      <stop stop-color="#165556"/>
      <stop offset="1" stop-color="#0EF"/>
    </linearGradient>
    <linearGradient id="s" x1="286.95" x2="474.378" y1="248.8" y2="427.449" gradientUnits="userSpaceOnUse">
      <stop stop-color="#165556"/>
      <stop offset="1" stop-color="#0EF"/>
    </linearGradient>
    <clipPath id="a">
      <path fill="#fff" d="M0 0h860v750H0z"/>
    </clipPath>
    <clipPath id="b">
      <path fill="#fff" d="M125 69h610.883v610.883H125z"/>
    </clipPath>
  </defs>
</svg>
